<?xml version="1.0" encoding="UTF-8"?>
<svg version="1.1" xmlns="http://www.w3.org/2000/svg" width="730" height="729">
<path d="M0 0 C240.9 0 481.8 0 730 0 C730 240.57 730 481.14 730 729 C489.1 729 248.2 729 0 729 C0 488.43 0 247.86 0 0 Z " fill="#FCFDFD" transform="translate(0,0)"/>
<path d="M0 0 C1.05550443 -0.00495952 2.11100886 -0.00991903 3.19849828 -0.01502883 C6.74112401 -0.02799895 10.28337371 -0.01959546 13.8260088 -0.01129913 C16.38927678 -0.01618735 18.95254257 -0.02237684 21.51580459 -0.02975702 C27.09193161 -0.04366318 32.6679775 -0.04640482 38.24411869 -0.04179764 C46.53628841 -0.03496419 54.828376 -0.04522493 63.12053431 -0.0587552 C78.79281392 -0.08366998 94.46505947 -0.08818395 110.13735571 -0.08628923 C122.24089229 -0.08491624 134.34441705 -0.08873338 146.44795132 -0.09621429 C148.18677695 -0.09726463 149.92560258 -0.09831225 151.66442821 -0.09935716 C152.95915021 -0.10013617 152.95915021 -0.10013617 154.28002821 -0.10093093 C155.14475672 -0.10145107 156.00948522 -0.10197121 156.90041763 -0.10250711 C157.76659425 -0.10303111 158.63277087 -0.1035551 159.52519527 -0.10409497 C183.88933258 -0.11867956 208.25346554 -0.12696024 232.61760712 -0.12234497 C233.53619023 -0.12217302 234.45477334 -0.12200106 235.40119231 -0.1218239 C240.05693585 -0.12093501 244.71267937 -0.11999019 249.36842289 -0.11902589 C250.29306708 -0.11883485 251.21771126 -0.11864382 252.17037497 -0.118447 C254.04023116 -0.11805991 255.91008735 -0.11766958 257.77994354 -0.11727602 C286.86986014 -0.11130703 315.95969717 -0.12673926 345.04959583 -0.15888214 C377.73362033 -0.19496573 410.41759437 -0.21429078 443.10164005 -0.20934343 C446.58736725 -0.20887346 450.07309446 -0.20846321 453.55882168 -0.20809174 C454.84622832 -0.20793816 454.84622832 -0.20793816 456.15964318 -0.20778148 C469.11181628 -0.20658702 482.06393484 -0.2185491 495.01609325 -0.23723602 C509.74947315 -0.25848258 524.48273871 -0.26231325 539.21612372 -0.24293643 C547.45857661 -0.23261691 555.70075053 -0.23606306 563.94317814 -0.25946729 C570.10168167 -0.27540196 576.25988232 -0.26512906 582.41836689 -0.24474627 C584.90690308 -0.24055364 587.3954709 -0.2447826 589.88397368 -0.25834221 C619.48048575 -0.40861146 619.48048575 -0.40861146 631.46683216 11.2698288 C637.71193948 18.32327986 640.58962123 25.25615223 640.58402157 34.75877953 C640.58632926 35.48326141 640.58863695 36.20774329 640.59101456 36.95417917 C640.59630978 39.38263922 640.58733451 41.81083425 640.57843494 44.2392807 C640.57930711 45.99749982 640.58105829 47.75571868 640.58361328 49.51393616 C640.58808866 54.34608218 640.58008047 59.17813967 640.57005715 64.01027441 C640.56142773 69.22085156 640.56434246 74.43142364 640.5658617 79.64200592 C640.56691087 88.6699352 640.56063089 97.69783559 640.54938602 106.7257576 C640.53313837 119.77864646 640.52792377 132.83152134 640.52541004 145.88441922 C640.52103179 167.0613996 640.50771914 188.23836459 640.48880482 209.41533661 C640.4704494 229.98792697 640.45629124 250.56051315 640.44778919 271.13311005 C640.44700102 273.03495522 640.44700102 273.03495522 640.44619693 274.9752215 C640.44358687 281.33582795 640.44105945 287.69643443 640.43857312 294.05704093 C640.41783656 346.83240795 640.38260747 399.60775825 640.33792591 452.38311005 C629.17156417 447.40482152 615.13933188 434.84345798 610.50477973 423.30970541 C607.30150432 412.4355141 608.07836803 400.57271573 608.38106048 389.36993563 C608.4822075 384.58153002 608.4359476 379.79403718 608.40884876 375.00495148 C608.38152665 366.73610906 608.44427246 358.472056 608.57060909 350.20418739 C608.7529709 338.24941061 608.79313376 326.29734186 608.79989236 314.34132826 C608.81446364 294.935257 608.93864168 275.53154676 609.13455677 256.12651825 C609.32438517 237.29811611 609.46680244 218.47038995 609.5427599 199.64116669 C609.54747179 198.47796331 609.55218369 197.31475994 609.55703837 196.11630798 C609.5849208 189.12296218 609.61085583 182.12961022 609.63601489 175.13625415 C609.67269126 164.96665469 609.71147806 154.797064 609.75209522 144.62747955 C609.75640243 143.53405762 609.76070965 142.44063569 609.76514738 141.31407975 C609.82591741 126.16240975 609.92275326 111.0113578 610.04989161 95.86010374 C610.07535528 92.78086818 610.09952585 89.70162561 610.12314308 86.62237537 C610.1345353 85.13782486 610.1345353 85.13782486 610.14615767 83.62328344 C610.16114666 81.66343103 610.17607133 79.70357812 610.19092894 77.74372471 C610.23434562 72.12671263 610.28673654 66.50987585 610.34597785 60.89300958 C610.37983656 57.4969779 610.40562447 54.10092121 610.42910951 50.70480346 C610.44168961 49.14223517 610.45780527 47.57969083 610.47767759 46.01719827 C610.50419462 43.90521436 610.51856836 41.79349413 610.52980614 39.68138218 C610.54671638 37.91664463 610.54671638 37.91664463 610.56396824 36.11625582 C610.62227552 33.23651353 610.62227552 33.23651353 608.33792591 31.38311005 C606.4050823 31.08094831 606.4050823 31.08094831 604.15599495 31.13126105 C603.27215088 31.12599779 602.38830681 31.12073453 601.47767958 31.11531177 C600.49872305 31.11970826 599.51976652 31.12410474 598.51114464 31.12863445 C597.4730743 31.12542797 596.43500395 31.1222215 595.36547694 31.11891785 C591.84619337 31.11053911 588.32707652 31.11656948 584.8077898 31.12241364 C582.2755732 31.11939654 579.7433575 31.1155093 577.21114343 31.11082107 C571.68454193 31.10264162 566.15799221 31.10075633 560.63138676 31.10432434 C552.41330784 31.10961607 544.19526499 31.10355153 535.97719 31.09524141 C520.4482595 31.07997123 504.91934526 31.07829943 489.39040882 31.08076444 C477.40201547 31.0825945 465.41362747 31.08084353 453.42523479 31.07653999 C451.70509878 31.0759376 449.98496277 31.0753364 448.26482676 31.07473639 C445.67299704 31.07382917 443.08116732 31.07292051 440.4893376 31.07200404 C416.38026572 31.06356992 392.27119587 31.05924199 368.16212273 31.06341076 C367.25255421 31.06356713 366.3429857 31.06372351 365.40585451 31.06388463 C360.79541879 31.06469045 356.18498307 31.06553622 351.57454736 31.06639793 C350.65884067 31.06656902 349.74313399 31.0667401 348.79967862 31.06691638 C346.9478958 31.06726303 345.09611299 31.06761156 343.24433017 31.06796196 C314.42403553 31.07332039 285.60377148 31.06538716 256.78348255 31.04692841 C224.43067945 31.02623161 192.0778953 31.01548124 159.7250852 31.01950389 C156.27820107 31.01989926 152.83131693 31.0202608 149.38443279 31.02060127 C148.53567367 31.020692 147.68691454 31.02078274 146.81243544 31.02087622 C133.97637641 31.02204421 121.14033645 31.01537856 108.30428219 31.00478935 C93.71322489 30.99276488 79.12220973 30.9911465 64.53115184 31.00357952 C56.35778932 31.01023156 48.18452742 31.0085234 40.01117285 30.99499101 C33.92163244 30.98582959 27.83221593 30.99220665 21.74267726 31.0048388 C19.26894508 31.00751175 16.7952013 31.00503898 14.3214804 30.99710294 C10.97764824 30.98711402 7.63435777 30.9953179 4.29054832 31.00837994 C3.31393296 31.00107059 2.33731759 30.99376124 1.33110783 30.9862304 C0.00158644 30.9971119 0.00158644 30.9971119 -1.35479397 31.00821322 C-2.12005537 31.00819276 -2.88531678 31.0081723 -3.67376792 31.00815121 C-6.22771615 31.48977998 -7.11330642 32.32464869 -8.66207409 34.38311005 C-9.11624038 37.55426548 -9.11624038 37.55426548 -9.03959751 41.2691412 C-9.04395783 41.97714454 -9.04831816 42.68514789 -9.05281061 43.41460589 C-9.06382564 45.80521284 -9.0533162 48.19525009 -9.04302502 50.58585358 C-9.04647913 52.30976155 -9.05124202 54.03366731 -9.05720675 55.75756842 C-9.06978047 60.5089854 -9.06351753 65.26022263 -9.05424809 70.01164043 C-9.04748386 75.13033409 -9.05792578 80.24899598 -9.06618786 85.36768341 C-9.07955583 95.40109684 -9.07663376 105.4344431 -9.06794994 115.4678592 C-9.06118544 123.61993394 -9.06025131 131.7719898 -9.06352139 139.92406654 C-9.06398108 141.08260618 -9.06444078 142.24114582 -9.06491441 143.43479272 C-9.06587355 145.7880712 -9.06684619 148.14134967 -9.06783219 150.49462814 C-9.07639515 172.58255344 -9.06653794 194.67044145 -9.05043109 216.75836063 C-9.03702886 235.72468577 -9.03935347 254.69095583 -9.05318737 273.65727997 C-9.06923024 295.66252648 -9.07556922 317.66774027 -9.06635058 339.67299181 C-9.0653949 342.01810713 -9.06445178 344.36322245 -9.06352139 346.70833778 C-9.06305856 347.86228806 -9.06259573 349.01623834 -9.06211888 350.20515681 C-9.05952498 358.35010913 -9.06390864 366.49504074 -9.07096004 374.63998985 C-9.07936097 384.56222533 -9.07712468 394.48438958 -9.06111781 404.40661686 C-9.05321583 409.4723647 -9.05017619 414.53799365 -9.06006527 419.60374069 C-9.06897301 424.23675596 -9.06414438 428.86954159 -9.04813261 433.50253589 C-9.04476809 435.18285388 -9.04651613 436.86319109 -9.05375998 438.54349684 C-9.06282361 440.81969009 -9.05358674 443.09508678 -9.03959751 445.37123775 C-9.03911045 446.63787744 -9.0386234 447.90451712 -9.03812158 449.20953983 C-8.6277151 452.67307523 -8.31553304 454.11920259 -5.66207409 456.38311005 C-2.78814143 456.9766364 -2.78814143 456.9766364 0.56574249 456.86298561 C1.87857198 456.86826621 3.19140148 456.87354681 4.54401368 456.87898743 C6.00980086 456.86459369 7.47558466 456.8498522 8.94136524 456.83480072 C10.49172539 456.83351562 12.04208789 456.83401464 13.5924471 456.836151 C17.86475437 456.83702236 22.136624 456.81305479 26.40882814 456.78532505 C31.01237204 456.75987746 35.61592937 456.75760478 40.21953297 456.75296783 C48.20312989 456.74216683 56.18659346 456.71786533 64.17013073 456.68557358 C76.79762786 456.63547706 89.42501803 456.62433714 102.05260181 456.61916351 C106.37300507 456.61688445 110.6934081 456.61430269 115.01381111 456.61159325 C116.63359672 456.61058298 116.63359672 456.61058298 118.28610527 456.6095523 C130.5855351 456.6012267 142.88494701 456.58362375 155.18436146 456.56279755 C156.30892037 456.56090305 157.43347928 456.55900856 158.59211574 456.55705665 C176.79092109 456.52555137 194.98960339 456.47038217 213.18833192 456.40992953 C231.87894271 456.34880351 250.56935621 456.32624779 269.26006395 456.33587348 C280.78355989 456.34033317 292.30610266 456.31302394 303.82939956 456.24445479 C311.7372712 456.20000872 319.64465614 456.19206162 327.55262455 456.21231885 C332.11004407 456.2228363 336.66591445 456.21733927 341.22310734 456.16751289 C374.80319652 455.81942939 374.80319652 455.81942939 385.33875465 464.84589195 C399.15018771 476.52999228 425.58528473 482.96968269 443.33792591 483.38311005 C444.8886681 483.44812714 444.8886681 483.44812714 446.47073841 483.5144577 C468.32425403 484.37918714 491.3298254 482.64793012 511.46292591 473.19561005 C512.81644154 472.56912567 512.81644154 472.56912567 514.19730091 471.92998505 C516.63233414 470.73064032 519.02432368 469.49228044 521.41605091 468.21123505 C522.48121937 467.65085541 522.48121937 467.65085541 523.56790638 467.07915497 C524.97648184 466.33478713 526.37699632 465.57492023 527.76810169 464.79839325 C532.6652352 462.2198356 532.6652352 462.2198356 536.15433216 463.0667038 C536.8749181 463.50111786 537.59550404 463.93553192 538.33792591 464.38311005 C539.18355091 464.87811005 540.02917591 465.37311005 540.90042591 465.88311005 C543.40966297 468.45668652 543.88383174 469.66642115 544.96439075 472.97466278 C547.33212879 479.08481461 551.0910995 482.92316707 555.75198841 487.4182663 C556.9682642 488.62536507 556.9682642 488.62536507 558.20911121 489.85684967 C560.77991242 492.40089652 563.37111929 494.92298576 565.96292591 497.44561005 C567.71164547 499.17278647 569.45905518 500.90129013 571.20511341 502.63115692 C574.38845966 505.77248835 577.57326238 508.91213701 580.77786732 512.03179169 C581.4186623 512.65671005 582.05945728 513.28162842 582.7196703 513.9254837 C584.29016524 515.47019744 584.29016524 515.47019744 586.33792591 516.38311005 C586.33792591 517.04311005 586.33792591 517.70311005 586.33792591 518.38311005 C586.99792591 518.38311005 587.65792591 518.38311005 588.33792591 518.38311005 C588.33792591 519.04311005 588.33792591 519.70311005 588.33792591 520.38311005 C531.98664073 520.46871235 475.63534916 520.54831408 419.28401661 520.59482574 C418.03274718 520.59586117 418.03274718 520.59586117 416.75619958 520.59691752 C398.62669683 520.61188248 380.49719339 520.62573333 362.36768891 520.63843669 C353.476827 520.64467331 344.58596528 520.65115609 335.69510365 520.65776825 C334.36799087 520.65874894 334.36799087 520.65874894 333.01406774 520.65974945 C304.34333549 520.68105154 275.67265256 520.71860461 247.00195018 520.76459615 C217.53607448 520.81177734 188.07022608 520.84254149 158.60431325 520.852685 C154.44129547 520.85412575 150.27827779 520.85575393 146.11526012 520.85749626 C145.29592839 520.85783338 144.47659665 520.85817049 143.63243668 520.85851782 C130.44993069 520.8644236 117.26750912 520.8876063 104.08503754 520.91727022 C90.82826023 520.9467319 77.57156652 520.95794358 64.31475762 520.95061693 C56.44114288 520.94681758 48.5678344 520.95692059 40.69427502 520.98709776 C34.8100601 521.00810684 28.92605586 521.00288845 23.04181697 520.98760452 C20.66474246 520.98549354 18.28764204 520.99182249 15.91061846 521.00752596 C-0.43805399 521.10923644 -14.28723629 520.48239477 -26.66207409 508.38311005 C-28.89417921 505.845717 -30.82632472 503.21813583 -32.66207409 500.38311005 C-33.05266003 499.78369598 -33.44324596 499.18428192 -33.84566784 498.5667038 C-37.78429851 492.1177371 -38.96240659 485.87073054 -38.91934299 478.41536331 C-38.92284907 477.63899519 -38.92635514 476.86262707 -38.92996746 476.06273264 C-38.93926428 473.4637037 -38.93436259 470.86489967 -38.92949963 468.26586151 C-38.93323675 466.38262412 -38.93783852 464.49938829 -38.94323027 462.61615491 C-38.95546798 457.44267009 -38.95519889 452.2692499 -38.95284152 447.09575391 C-38.95243355 441.51550884 -38.96347062 435.93528454 -38.97295666 430.35504913 C-38.98957186 419.42282054 -38.99506644 408.49061352 -38.99618141 397.55837336 C-38.99713164 388.67228444 -39.00124066 379.78620264 -39.00758266 370.90011597 C-39.02233024 349.80738488 -39.03463224 328.71465814 -39.03358555 307.62192154 C-39.03355439 306.94749392 -39.03352323 306.27306629 -39.03349113 305.57820147 C-39.03332492 302.16000182 -39.03312684 298.74180217 -39.03292172 295.32360253 C-39.03288183 294.64474865 -39.03284194 293.96589477 -39.03280084 293.26646956 C-39.03271996 291.89366161 -39.03263637 290.52085365 -39.03255005 289.14804569 C-39.03132469 267.79196569 -39.04633557 246.43594922 -39.07369518 225.07988739 C-39.10442874 201.08040135 -39.12160157 177.08096303 -39.11976874 153.08145165 C-39.11910465 140.37651195 -39.12460547 127.67164387 -39.14612484 114.96672058 C-39.16432922 104.14959465 -39.16869002 93.33257284 -39.15510599 82.51543823 C-39.14857266 76.99712783 -39.14847253 71.47901722 -39.16581249 65.96072578 C-39.18153178 60.90618531 -39.17869104 55.85200322 -39.16124423 50.79747155 C-39.15817184 48.97178897 -39.16181568 47.14607971 -39.17296438 45.32042858 C-39.25243429 31.38037025 -38.09668836 20.99573931 -27.95894909 10.5432663 C-19.51514636 2.60207087 -11.50255375 -0.07625817 0 0 Z " fill="#0C52A9" transform="translate(38.66207408905029,70.61688995361328)"/>
<path d="M0 0 C20.29632502 18.39926222 33.96169975 41.3305506 40.35620117 67.96191406 C40.51991211 68.63125977 40.68362305 69.30060547 40.85229492 69.99023438 C43.81486541 82.59340099 43.73311862 95.07932499 43.35620117 107.96191406 C43.32719727 109.80462891 43.32719727 109.80462891 43.29760742 111.68457031 C42.44498977 132.12155702 33.00702878 151.59982618 23.31420898 169.18530273 C22.28744695 171.08941776 21.32366118 173.02699405 20.35620117 174.96191406 C25.63620117 180.24191406 30.91620117 185.52191406 36.35620117 190.96191406 C37.67620117 190.30191406 38.99620117 189.64191406 40.35620117 188.96191406 C42.50463867 188.62597656 42.50463867 188.62597656 44.73120117 188.58691406 C45.46081055 188.55855469 46.19041992 188.53019531 46.94213867 188.50097656 C53.45140814 189.74384678 58.21796002 195.57064439 62.66088867 200.10644531 C63.34369904 200.79445724 64.0265094 201.48246918 64.73001099 202.19132996 C66.90191974 204.38095687 69.06700607 206.57716492 71.23120117 208.77441406 C73.38908457 210.96009901 75.54848041 213.14423315 77.71096802 215.32536316 C79.05179162 216.67824591 80.38993771 218.03378994 81.724823 219.39253235 C85.52113698 223.228791 89.43281408 226.85923054 93.5305481 230.37236023 C96.2960569 232.78022467 98.85761326 235.27593206 101.35620117 237.96191406 C101.35620117 238.62191406 101.35620117 239.28191406 101.35620117 239.96191406 C101.88995361 240.16969482 102.42370605 240.37747559 102.97363281 240.59155273 C106.30934372 242.51012485 108.80285895 245.16345063 111.47729492 247.88769531 C112.05906998 248.47230026 112.64084503 249.05690521 113.24024963 249.65922546 C115.09615959 251.52630108 116.9450047 253.4001984 118.79370117 255.27441406 C120.03347175 256.52422327 121.27370142 257.77357724 122.5144043 259.02246094 C125.31230383 261.84027702 128.1050248 264.66313937 130.895401 267.48840332 C132.30388965 268.90914737 133.72124238 270.32108696 135.13891602 271.73266602 C141.83541266 278.46529218 145.22907601 284.60053925 145.85620117 294.21191406 C145.64903105 302.17160816 142.30141833 308.03415004 136.71948242 313.58300781 C129.8151745 319.47003708 124.55709149 322.24414798 115.35620117 322.27441406 C114.18057617 322.29117187 113.00495117 322.30792969 111.79370117 322.32519531 C105.08295652 321.61599162 100.95284635 317.99230254 96.38598633 313.31640625 C95.82249985 312.75175156 95.25901337 312.18709686 94.67845154 311.60533142 C92.82697929 309.74670303 90.98626281 307.87778665 89.14526367 306.00878906 C87.85094314 304.70632218 86.55587669 303.40459618 85.26010132 302.10357666 C81.8536756 298.68006085 78.4559131 295.24808142 75.06036377 291.81378174 C69.63571038 286.32988951 64.19841837 280.85853798 58.76032639 275.3879776 C56.87211566 273.48592944 54.98784906 271.58004444 53.10415649 269.67352295 C47.88357072 264.40210949 42.6772273 259.20504547 37.02102661 254.3949585 C34.42864019 252.16349035 32.0344071 249.76992899 29.61401367 247.35253906 C28.87234451 246.61230499 28.87234451 246.61230499 28.11569214 245.8571167 C27.08786465 244.82996103 26.06126362 243.80157663 25.03588867 242.77197266 C23.46671667 241.19737952 21.89218886 239.62828129 20.31713867 238.05957031 C19.31160906 237.05338086 18.30638917 236.04688178 17.30151367 235.04003906 C15.94823975 233.68507324 15.94823975 233.68507324 14.56762695 232.30273438 C10.94800664 228.47132352 10.13663968 226.35718614 10.18823242 221.09472656 C10.35620117 218.96191406 10.35620117 218.96191406 11.30151367 216.66113281 C11.36981002 213.29022028 10.65175992 212.81187566 8.39135742 210.41113281 C7.08203078 209.14168414 5.75703979 207.88823847 4.41870117 206.64941406 C3.74645508 206.00423828 3.07420898 205.3590625 2.3815918 204.69433594 C0.71909535 203.10258402 -0.95572726 201.52644502 -2.64379883 199.96191406 C-3.2105835 200.34009277 -3.77736816 200.71827148 -4.36132812 201.10791016 C-5.87644878 202.11726261 -7.39421127 203.12265158 -8.91333008 204.12597656 C-10.72199845 205.34210551 -12.51177277 206.5868553 -14.28051758 207.86035156 C-27.44469077 217.1505491 -42.23576076 222.58867553 -57.64379883 226.96191406 C-59.3240918 227.49171875 -59.3240918 227.49171875 -61.03833008 228.03222656 C-70.50279774 230.47268518 -80.30631444 230.24106365 -90.01879883 230.27441406 C-90.77402832 230.27736481 -91.52925781 230.28031555 -92.30737305 230.28335571 C-104.2149222 230.29393557 -115.16271601 229.31261634 -126.64379883 225.96191406 C-127.57708008 225.73503906 -128.51036133 225.50816406 -129.47192383 225.27441406 C-148.64945516 220.32537372 -166.26458877 208.21075713 -180.64379883 194.96191406 C-181.58868164 194.09953125 -182.53356445 193.23714844 -183.50708008 192.34863281 C-207.50081243 169.44089683 -221.72393042 136.66431479 -222.86645508 103.57128906 C-223.67883781 65.88050875 -209.93407667 31.10951188 -183.83129883 3.77441406 C-132.54441864 -45.01066709 -53.1744452 -47.15107128 0 0 Z " fill="#FCFCFD" transform="translate(584.643798828125,312.0380859375)"/>
<path d="M0 0 C20.29632502 18.39926222 33.96169975 41.3305506 40.35620117 67.96191406 C40.51991211 68.63125977 40.68362305 69.30060547 40.85229492 69.99023438 C43.81486541 82.59340099 43.73311862 95.07932499 43.35620117 107.96191406 C43.32719727 109.80462891 43.32719727 109.80462891 43.29760742 111.68457031 C42.44498977 132.12155702 33.00702878 151.59982618 23.31420898 169.18530273 C22.28744695 171.08941776 21.32366118 173.02699405 20.35620117 174.96191406 C25.63620117 180.24191406 30.91620117 185.52191406 36.35620117 190.96191406 C37.67620117 190.30191406 38.99620117 189.64191406 40.35620117 188.96191406 C42.50463867 188.62597656 42.50463867 188.62597656 44.73120117 188.58691406 C45.46081055 188.55855469 46.19041992 188.53019531 46.94213867 188.50097656 C53.45140814 189.74384678 58.21796002 195.57064439 62.66088867 200.10644531 C63.34369904 200.79445724 64.0265094 201.48246918 64.73001099 202.19132996 C66.90191974 204.38095687 69.06700607 206.57716492 71.23120117 208.77441406 C73.38908457 210.96009901 75.54848041 213.14423315 77.71096802 215.32536316 C79.05179162 216.67824591 80.38993771 218.03378994 81.724823 219.39253235 C85.52113698 223.228791 89.43281408 226.85923054 93.5305481 230.37236023 C96.2960569 232.78022467 98.85761326 235.27593206 101.35620117 237.96191406 C101.35620117 238.62191406 101.35620117 239.28191406 101.35620117 239.96191406 C101.88995361 240.16969482 102.42370605 240.37747559 102.97363281 240.59155273 C106.30934372 242.51012485 108.80285895 245.16345063 111.47729492 247.88769531 C112.05906998 248.47230026 112.64084503 249.05690521 113.24024963 249.65922546 C115.09615959 251.52630108 116.9450047 253.4001984 118.79370117 255.27441406 C120.03347175 256.52422327 121.27370142 257.77357724 122.5144043 259.02246094 C125.31230383 261.84027702 128.1050248 264.66313937 130.895401 267.48840332 C132.30388965 268.90914737 133.72124238 270.32108696 135.13891602 271.73266602 C141.83541266 278.46529218 145.22907601 284.60053925 145.85620117 294.21191406 C145.64903105 302.17160816 142.30141833 308.03415004 136.71948242 313.58300781 C129.8151745 319.47003708 124.55709149 322.24414798 115.35620117 322.27441406 C114.18057617 322.29117187 113.00495117 322.30792969 111.79370117 322.32519531 C105.08295652 321.61599162 100.95284635 317.99230254 96.38598633 313.31640625 C95.82249985 312.75175156 95.25901337 312.18709686 94.67845154 311.60533142 C92.82697929 309.74670303 90.98626281 307.87778665 89.14526367 306.00878906 C87.85094314 304.70632218 86.55587669 303.40459618 85.26010132 302.10357666 C81.8536756 298.68006085 78.4559131 295.24808142 75.06036377 291.81378174 C69.63571038 286.32988951 64.19841837 280.85853798 58.76032639 275.3879776 C56.87211566 273.48592944 54.98784906 271.58004444 53.10415649 269.67352295 C47.88357072 264.40210949 42.6772273 259.20504547 37.02102661 254.3949585 C34.42864019 252.16349035 32.0344071 249.76992899 29.61401367 247.35253906 C28.87234451 246.61230499 28.87234451 246.61230499 28.11569214 245.8571167 C27.08786465 244.82996103 26.06126362 243.80157663 25.03588867 242.77197266 C23.46671667 241.19737952 21.89218886 239.62828129 20.31713867 238.05957031 C19.31160906 237.05338086 18.30638917 236.04688178 17.30151367 235.04003906 C15.94823975 233.68507324 15.94823975 233.68507324 14.56762695 232.30273438 C10.94800664 228.47132352 10.13663968 226.35718614 10.18823242 221.09472656 C10.35620117 218.96191406 10.35620117 218.96191406 11.30151367 216.66113281 C11.36981002 213.29022028 10.65175992 212.81187566 8.39135742 210.41113281 C7.08203078 209.14168414 5.75703979 207.88823847 4.41870117 206.64941406 C3.74645508 206.00423828 3.07420898 205.3590625 2.3815918 204.69433594 C0.71909535 203.10258402 -0.95572726 201.52644502 -2.64379883 199.96191406 C-3.2105835 200.34009277 -3.77736816 200.71827148 -4.36132812 201.10791016 C-5.87644878 202.11726261 -7.39421127 203.12265158 -8.91333008 204.12597656 C-10.72199845 205.34210551 -12.51177277 206.5868553 -14.28051758 207.86035156 C-27.44469077 217.1505491 -42.23576076 222.58867553 -57.64379883 226.96191406 C-59.3240918 227.49171875 -59.3240918 227.49171875 -61.03833008 228.03222656 C-70.50279774 230.47268518 -80.30631444 230.24106365 -90.01879883 230.27441406 C-90.77402832 230.27736481 -91.52925781 230.28031555 -92.30737305 230.28335571 C-104.2149222 230.29393557 -115.16271601 229.31261634 -126.64379883 225.96191406 C-127.57708008 225.73503906 -128.51036133 225.50816406 -129.47192383 225.27441406 C-148.64945516 220.32537372 -166.26458877 208.21075713 -180.64379883 194.96191406 C-181.58868164 194.09953125 -182.53356445 193.23714844 -183.50708008 192.34863281 C-207.50081243 169.44089683 -221.72393042 136.66431479 -222.86645508 103.57128906 C-223.67883781 65.88050875 -209.93407667 31.10951188 -183.83129883 3.77441406 C-132.54441864 -45.01066709 -53.1744452 -47.15107128 0 0 Z M-100.59692383 -8.94433594 C-129.72710017 -7.6141909 -153.67757606 7.62333535 -173.22827148 28.39404297 C-176.46956499 31.98417524 -179.111967 35.85329583 -181.64379883 39.96191406 C-182.22516602 40.86039063 -182.8065332 41.75886719 -183.40551758 42.68457031 C-199.07637271 67.94150168 -201.8044437 97.18373949 -195.32348633 125.74707031 C-190.36505455 145.36534536 -179.76444112 161.71374947 -165.64379883 175.96191406 C-164.77883789 176.83976563 -163.91387695 177.71761719 -163.02270508 178.62207031 C-142.24561295 198.59648131 -114.55499614 206.80715137 -86.24755859 206.48095703 C-57.79784289 205.64315094 -32.34427803 194.48287878 -11.64379883 174.96191406 C9.41339979 152.55055476 20.67120708 122.07106226 19.76635742 91.40332031 C18.19651536 64.0073618 4.74464458 36.97992326 -15.32104492 18.40966797 C-23.38262448 11.37967586 -32.2069832 5.94606449 -41.64379883 0.96191406 C-42.80202148 0.3315625 -42.80202148 0.3315625 -43.98364258 -0.31152344 C-61.85693661 -9.72597138 -80.97626288 -9.40964805 -100.59692383 -8.94433594 Z " fill="#0C51A7" transform="translate(584.643798828125,312.0380859375)"/>
<path d="M0 0 C1.21584495 0.00092179 2.43168989 0.00184359 3.68437862 0.00279331 C4.35901919 0.00193889 5.03365975 0.00108446 5.72874397 0.00020415 C8.00588764 -0.00145256 10.28295882 0.00407379 12.56009579 0.00952244 C14.18583836 0.00980429 15.81158107 0.00964661 17.43732357 0.00907993 C21.86482015 0.0087919 26.29228989 0.01468956 30.71978021 0.02165389 C35.34159444 0.02788646 39.96340922 0.02849115 44.58522701 0.0296793 C53.34356839 0.0327929 62.10189735 0.04100667 70.86023325 0.05102879 C80.82862615 0.06218903 90.79701963 0.06770015 100.76541722 0.07272422 C121.27698043 0.08318927 141.78853244 0.10078926 162.30008602 0.12304783 C163.76120612 4.35443099 164.69641371 8.2376268 165.23758602 12.68554783 C166.01760116 18.49300427 167.13225328 24.1090639 168.50321102 29.80273533 C169.37667362 33.44216283 170.19157782 37.09091579 170.98758602 40.74804783 C171.23895321 41.89531345 171.4903204 43.04257908 171.74930477 44.22461033 C172.30008602 47.12304783 172.30008602 47.12304783 172.30008602 50.12304783 C173.5764996 50.10733738 174.85291317 50.09162693 176.16800594 50.07544041 C180.91094287 50.02107402 185.65385232 49.9866732 190.39700985 49.95825291 C192.44848928 49.94318161 194.49993658 49.92272101 196.55130672 49.89672947 C199.5028035 49.86027359 202.45387365 49.84330476 205.40555477 49.83007908 C206.7777039 49.80685329 206.7777039 49.80685329 208.1775732 49.7831583 C214.92977658 49.78138029 218.15647689 51.07471022 223.11258602 55.81054783 C226.01882919 60.21143035 226.1229573 61.93895878 225.30008602 67.12304783 C223.12434186 69.81409981 221.38942746 71.57837711 218.30008602 73.12304783 C216.77789149 73.21899394 215.25154157 73.25221506 213.7263279 73.25447559 C212.75704532 73.25831674 211.78776275 73.26215788 210.78910798 73.26611543 C209.18043696 73.2648157 209.18043696 73.2648157 207.53926754 73.26348972 C206.40585896 73.26646085 205.27245039 73.26943197 204.10469609 73.27249312 C200.28073996 73.28121229 196.456815 73.28269108 192.63284969 73.28418064 C189.90178396 73.28826687 187.17072154 73.29380999 184.43965816 73.29922581 C177.0016632 73.31282109 169.56367361 73.31883575 162.12566829 73.32323647 C157.48325311 73.32599695 152.84084002 73.33023396 148.19842625 73.33474064 C135.35054785 73.34693502 122.50267113 73.3572339 109.65478706 73.36061573 C108.42078525 73.36094508 108.42078525 73.36094508 107.16185411 73.36128108 C106.33719206 73.36149936 105.51253002 73.36171764 104.66287822 73.36194253 C102.99173589 73.362386 101.32059357 73.36283256 99.64945126 73.3632822 C98.8205029 73.36350363 97.99155455 73.36372506 97.13748655 73.3639532 C83.7035245 73.36790177 70.26961667 73.38535682 56.83567556 73.40864173 C43.05056466 73.43234287 29.26548098 73.44481702 15.48034936 73.44598365 C7.73756033 73.44690112 -0.00515806 73.45267159 -7.74792767 73.47080326 C-14.34085624 73.4861876 -20.93369234 73.49133462 -27.52663545 73.48306516 C-30.89134835 73.4791526 -34.25572321 73.48174214 -37.62043858 73.49412251 C-41.26650263 73.50675403 -44.91208449 73.50101279 -48.55814457 73.4905405 C-49.62389975 73.49859691 -50.68965493 73.50665331 -51.78770572 73.51495385 C-60.7497205 73.4545118 -60.7497205 73.4545118 -64.69991398 70.12304783 C-67.03058975 66.90449558 -67.16732535 64.01814257 -66.69991398 60.12304783 C-64.36162235 55.79287814 -61.88714686 52.70854523 -57.69991398 50.12304783 C-54.32273582 49.57802717 -50.99977318 49.65719139 -47.58663273 49.73242283 C-46.61708149 49.73808262 -45.64753025 49.74374241 -44.64859867 49.74957371 C-41.56102852 49.77191077 -38.47463159 49.82210285 -35.38741398 49.87304783 C-33.29042557 49.89311625 -31.19341891 49.91136642 -29.09639835 49.92773533 C-23.96378691 49.97176696 -18.83204916 50.04077672 -13.69991398 50.12304783 C-13.64367863 49.38336765 -13.58744328 48.64368748 -13.52950382 47.88159275 C-13.44909855 46.90295261 -13.36869328 45.92431248 -13.28585148 44.91601658 C-13.17056095 43.46618382 -13.17056095 43.46618382 -13.05294132 41.9870615 C-12.72396149 39.31813867 -12.1617991 36.98408448 -11.32491398 34.43554783 C-9.90376211 30.09620548 -8.99891185 25.73634983 -8.19991398 21.24804783 C-4.4321033 0.20199188 -4.4321033 0.20199188 0 0 Z " fill="#013074" transform="translate(258.69991397857666,599.8769521713257)"/>
<path d="M0 0 C0.72960937 -0.02835937 1.45921875 -0.05671875 2.2109375 -0.0859375 C8.72020696 1.15693272 13.48675885 6.98373033 17.9296875 11.51953125 C18.61249786 12.20754318 19.29530823 12.89555511 19.99880981 13.60441589 C22.17071857 15.79404281 24.3358049 17.99025086 26.5 20.1875 C28.6578834 22.37318494 30.81727923 24.55731908 32.97976685 26.7384491 C34.32059045 28.09133185 35.65873654 29.44687588 36.99362183 30.80561829 C40.78993581 34.64187694 44.70161291 38.27231647 48.79934692 41.78544617 C51.56485573 44.1933106 54.12641209 46.68901799 56.625 49.375 C56.625 50.035 56.625 50.695 56.625 51.375 C57.42562866 51.68667114 57.42562866 51.68667114 58.24243164 52.00463867 C61.57814255 53.92321079 64.07165778 56.57653657 66.74609375 59.30078125 C67.3278688 59.8853862 67.90964386 60.46999115 68.50904846 61.0723114 C70.36495842 62.93938702 72.21380352 64.81328434 74.0625 66.6875 C75.30227058 67.9373092 76.54250025 69.18666318 77.78320312 70.43554688 C80.58110266 73.25336295 83.37382363 76.07622531 86.16419983 78.90148926 C87.57268848 80.32223331 88.99004121 81.7341729 90.40771484 83.14575195 C97.10421149 89.87837812 100.49787484 96.01362519 101.125 105.625 C100.91782988 113.5846941 97.57021716 119.44723598 91.98828125 124.99609375 C85.08397332 130.88312302 79.82589032 133.65723391 70.625 133.6875 C69.449375 133.70425781 68.27375 133.72101563 67.0625 133.73828125 C60.35175535 133.02907755 56.22164518 129.40538848 51.65478516 124.72949219 C51.09129868 124.16483749 50.52781219 123.6001828 49.94725037 123.01841736 C48.09577812 121.15978897 46.25506164 119.29087259 44.4140625 117.421875 C43.11974197 116.11940812 41.82467551 114.81768212 40.52890015 113.5166626 C37.12247443 110.09314679 33.72471193 106.66116736 30.3291626 103.22686768 C24.90450921 97.74297545 19.4672172 92.27162392 14.02912521 86.80106354 C12.14091449 84.89901538 10.25664789 82.99313038 8.37295532 81.08660889 C3.15236954 75.81519543 -2.05397387 70.61813141 -7.71017456 65.80804443 C-10.30256098 63.57657629 -12.69679407 61.18301493 -15.1171875 58.765625 C-15.61163361 58.27213562 -16.10607971 57.77864624 -16.61550903 57.27020264 C-17.64333653 56.24304697 -18.66993755 55.21466257 -19.6953125 54.18505859 C-21.2644845 52.61046546 -22.83901231 51.04136722 -24.4140625 49.47265625 C-25.41959211 48.4664668 -26.424812 47.45996771 -27.4296875 46.453125 C-28.33187012 45.54981445 -29.23405273 44.64650391 -30.16357422 43.71582031 C-33.2294497 40.4705549 -34.33221741 39.0381302 -34.625 34.5 C-34.51751489 31.05415397 -34.18226846 28.38711411 -32.375 25.375 C-31.60824951 24.91544922 -30.84149902 24.45589844 -30.05151367 23.98242188 C-27.36533479 22.36919541 -25.44084615 20.68475642 -23.23828125 18.46875 C-22.12549805 17.35306641 -22.12549805 17.35306641 -20.99023438 16.21484375 C-20.23033203 15.44269531 -19.47042969 14.67054688 -18.6875 13.875 C-17.91599609 13.10285156 -17.14449219 12.33070313 -16.34960938 11.53515625 C-12.05275769 7.21462998 -12.05275769 7.21462998 -8.375 2.375 C-5.56673549 0.60946661 -3.29881586 0.05787396 0 0 Z " fill="#0D5BBA" transform="translate(629.375,500.625)"/>
<path d="M0 0 C0.495 1.485 0.495 1.485 1 3 C61.72 2.67 122.44 2.34 185 2 C185.33 1.34 185.66 0.68 186 0 C186 0.99 186 1.98 186 3 C187.27641357 2.98428955 188.55282715 2.9685791 189.86791992 2.95239258 C194.61085684 2.89802619 199.3537663 2.86362537 204.09692383 2.83520508 C206.14840326 2.82013378 208.19985056 2.79967318 210.2512207 2.77368164 C213.20271748 2.73722576 216.15378763 2.72025694 219.10546875 2.70703125 C220.47761787 2.68380547 220.47761787 2.68380547 221.87748718 2.66011047 C228.62969056 2.65833247 231.85639087 3.95166239 236.8125 8.6875 C239.71874317 13.08838252 239.82287128 14.81591095 239 20 C236.82425584 22.69105198 235.08934144 24.45532928 232 26 C230.47780547 26.09594611 228.95145554 26.12916723 227.42624187 26.13142776 C226.4569593 26.13526891 225.48767673 26.13911005 224.48902196 26.1430676 C222.88035094 26.14176787 222.88035094 26.14176787 221.23918152 26.14044189 C220.10577294 26.14341302 218.97236436 26.14638414 217.80461007 26.1494453 C213.98065394 26.15816446 210.15672898 26.15964325 206.33276367 26.16113281 C203.60169794 26.16521904 200.87063552 26.17076216 198.13957214 26.17617798 C190.70157718 26.18977326 183.26358759 26.19578792 175.82558227 26.20018864 C171.18316709 26.20294912 166.54075399 26.20718613 161.89834023 26.21169281 C149.05046183 26.22388719 136.2025851 26.23418607 123.35470104 26.2375679 C122.12069923 26.23789725 122.12069923 26.23789725 120.86176809 26.23823325 C120.03710604 26.23845153 119.212444 26.23866981 118.36279219 26.2388947 C116.69164987 26.23933817 115.02050755 26.23978473 113.34936523 26.24023438 C112.52041688 26.2404558 111.69146853 26.24067723 110.83740053 26.24090537 C97.40343848 26.24485394 83.96953065 26.26230899 70.53558954 26.2855939 C56.75047864 26.30929504 42.96539495 26.32176919 29.18026334 26.32293582 C21.43747431 26.3238533 13.69475591 26.32962376 5.95198631 26.34775543 C-0.64094226 26.36313977 -7.23377837 26.3682868 -13.82672147 26.36001733 C-17.19143437 26.35610477 -20.55580923 26.35869431 -23.9205246 26.37107468 C-27.56658865 26.3837062 -31.21217051 26.37796496 -34.85823059 26.36749268 C-35.92398577 26.37554908 -36.98974095 26.38360548 -38.08779174 26.39190602 C-47.04980652 26.33146397 -47.04980652 26.33146397 -51 23 C-53.33067577 19.78144775 -53.46741137 16.89509474 -53 13 C-50.66170837 8.66983031 -48.18723289 5.5854974 -44 3 C-40.62282184 2.45497934 -37.2998592 2.53414356 -33.88671875 2.609375 C-32.91716751 2.61503479 -31.94761627 2.62069458 -30.94868469 2.62652588 C-27.86111454 2.64886294 -24.77471761 2.69905502 -21.6875 2.75 C-19.59051159 2.77006842 -17.49350493 2.78831859 -15.39648438 2.8046875 C-10.26387293 2.84871913 -5.13213518 2.91772889 0 3 C0 2.01 0 1.02 0 0 Z " fill="#0A53AA" transform="translate(245,647)"/>
<path d="M0 0 C0.95412985 -0.00010734 1.90825971 -0.00021467 2.89130259 -0.00032526 C3.99269524 -0.01013955 5.0940879 -0.01995384 6.22885609 -0.03006554 C8.05115183 -0.01565803 8.05115183 -0.01565803 9.91026163 -0.00095946 C11.1970272 -0.00649385 12.48379277 -0.01202825 13.80955124 -0.01773036 C17.38862761 -0.03253463 20.96726626 -0.02227476 24.54632878 -0.00799364 C28.40324258 0.00308428 32.26009336 -0.00881585 36.11700296 -0.01783568 C43.6755909 -0.03179195 51.23401213 -0.02419444 58.79259217 -0.00916009 C67.58882742 0.00767219 76.38502083 0.00449327 85.1812672 0.00074583 C100.87258198 -0.00513713 116.5638166 0.00905585 132.25511026 0.03369325 C147.49244552 0.05761531 162.72967366 0.06469807 177.96702433 0.05420107 C194.54651026 0.04279998 211.12594661 0.04085177 227.70543194 0.05529916 C229.47226095 0.05682505 231.23908996 0.05834541 233.00591898 0.05986017 C233.87530661 0.06061798 234.74469425 0.0613758 235.64042696 0.06215658 C241.77657785 0.06690567 247.91270665 0.06504354 254.04885721 0.06079477 C261.52347537 0.05587559 268.9979921 0.06181892 276.47258699 0.08168907 C280.28863038 0.09158244 284.10451912 0.0966443 287.92057085 0.08879656 C292.0511524 0.08047558 296.18131936 0.09527821 300.31187296 0.11256593 C302.1341687 0.10355087 302.1341687 0.10355087 303.9932785 0.09435368 C305.64536749 0.10701359 305.64536749 0.10701359 307.330832 0.11992925 C308.28496186 0.12095838 309.23909171 0.12198751 310.22213459 0.12304783 C313.03899569 0.56781332 313.93065729 1.23464928 315.6110673 3.50024599 C316.0095048 5.65649599 316.0095048 5.65649599 315.9860673 8.00024599 C315.99380167 8.77368349 316.00153605 9.54712099 316.0095048 10.34399599 C315.50440704 13.07746619 314.80239605 13.81405467 312.6110673 15.50024599 C310.22213459 15.87744415 310.22213459 15.87744415 307.330832 15.88056272 C306.22943935 15.88900266 305.12804669 15.8974426 303.9932785 15.9061383 C302.77841467 15.90012826 301.56355084 15.89411821 300.31187296 15.88792604 C299.02510739 15.89331158 297.73834182 15.89869712 296.41258335 15.90424585 C292.83358537 15.91875354 289.25481662 15.91443931 285.67580581 15.90707904 C281.81889215 15.90236279 277.96202921 15.91484344 274.10513163 15.92509645 C266.54657907 15.94231977 258.98810951 15.94311723 251.42954242 15.93788355 C245.28832602 15.93384744 239.1471342 15.93527873 233.00591898 15.94063181 C231.69646975 15.94175444 231.69646975 15.94175444 230.360567 15.94289975 C228.58733379 15.94443117 226.81410059 15.94596952 225.04086739 15.94751472 C208.40051963 15.96125235 191.76021885 15.95579304 175.11987215 15.94432951 C159.88367328 15.93439409 144.64759579 15.94734088 129.41141564 15.9712637 C113.77983197 15.99562312 98.14830492 16.00527047 82.51670265 15.99861097 C73.73552499 15.99511193 64.95444074 15.99739589 56.17327738 16.014862 C48.69864664 16.02954453 41.22417509 16.03027136 33.7495476 16.01279109 C29.93345321 16.00424622 26.11764368 16.00221578 22.30156374 16.01744264 C18.17089602 16.03372123 14.0409229 16.01921746 9.91026163 16.00145143 C8.6953978 16.01105644 7.48053397 16.02066145 6.22885609 16.03055751 C5.12746343 16.02074322 4.02607078 16.01092893 2.89130259 16.00081724 C1.93717273 16.0007099 0.98304288 16.00060257 0 16.00049198 C-2.3889327 15.50024599 -2.3889327 15.50024599 -4.19550991 13.68771029 C-5.9417503 10.48696824 -5.77291032 8.08403707 -5.3889327 4.50024599 C-3.87157248 1.71902601 -3.14931251 0.65947063 0 0 Z " fill="#90B9E5" transform="translate(298.38893270492554,155.499754011631)"/>
<path d="M0 0 C1.59702003 -0.01418472 1.59702003 -0.01418472 3.2263031 -0.02865601 C4.37115677 -0.02258331 5.51601044 -0.01651062 6.69555664 -0.01025391 C8.46715904 -0.01455917 8.46715904 -0.01455917 10.27455139 -0.01895142 C12.77190632 -0.02099262 15.26927722 -0.01545888 17.76660156 -0.00292969 C21.58768539 0.01310793 25.4077091 -0.00277016 29.22875977 -0.02197266 C31.65519439 -0.01998996 34.08162836 -0.01614573 36.50805664 -0.01025391 C37.65088608 -0.0163266 38.79371552 -0.02239929 39.97117615 -0.02865601 C41.03900833 -0.01919952 42.10684052 -0.00974304 43.20703125 0 C44.14316757 0.00238678 45.07930389 0.00477356 46.04380798 0.00723267 C50.36482562 0.63445893 52.82923502 2.28428418 55.45645142 5.74108887 C56.78617985 8.64588259 57.04810464 10.5616899 57.05639648 13.74169922 C57.06585297 14.78628296 57.07530945 15.8308667 57.08505249 16.90710449 C57.0789798 18.0249231 57.0729071 19.1427417 57.06665039 20.29443359 C57.06952057 21.45189087 57.07239075 22.60934814 57.0753479 23.80187988 C57.07738708 26.24618011 57.07186748 28.69049672 57.05932617 31.13476562 C57.04327139 34.87455765 57.0591808 38.6132689 57.07836914 42.35302734 C57.07638668 44.72933181 57.07254296 47.10563561 57.06665039 49.48193359 C57.07272308 50.5997522 57.07879578 51.7175708 57.08505249 52.8692627 C57.07086777 54.43613831 57.07086777 54.43613831 57.05639648 56.03466797 C57.0540097 56.95002319 57.05162292 57.86537842 57.04916382 58.80847168 C56.45393417 62.83922971 54.7198635 65.37361283 51.81770325 68.17344666 C49.1438654 69.68450698 47.34077784 69.78697352 44.27636719 69.82397461 C43.1981218 69.84311417 42.1198764 69.86225372 41.00895691 69.88197327 C39.2682769 69.88698097 39.2682769 69.88698097 37.49243164 69.89208984 C36.29391068 69.90207504 35.09538971 69.91206024 33.86054993 69.92234802 C31.32454888 69.93753625 28.78848789 69.9445736 26.25244141 69.9440918 C22.38025522 69.95064208 18.51064723 70.00509261 14.63891602 70.06201172 C12.17342998 70.07081606 9.70793178 70.07676875 7.24243164 70.07958984 C6.08805099 70.10114639 4.93367035 70.12270294 3.74430847 70.14491272 C-1.21265709 70.1028495 -5.38674893 69.98433047 -9.56835938 67.12255859 C-13.15755023 63.39427392 -13.15971106 59.43897226 -13.20181274 54.45103455 C-13.17509491 53.29462967 -13.14837708 52.13822479 -13.12084961 50.94677734 C-13.11806 49.74634293 -13.11527039 48.54590851 -13.11239624 47.30909729 C-13.09965501 44.77648468 -13.07002901 42.24390815 -13.0246582 39.71166992 C-12.95695982 35.83557223 -12.94266569 31.96208483 -12.93725586 28.08544922 C-12.91825451 25.62253242 -12.89622169 23.15963675 -12.87084961 20.69677734 C-12.86437408 19.53834824 -12.85789856 18.37991913 -12.85122681 17.18638611 C-12.82885956 16.10498856 -12.80649231 15.023591 -12.78344727 13.90942383 C-12.76899567 12.96155502 -12.75454407 12.01368622 -12.73965454 11.03709412 C-12.11376662 6.97224122 -10.41075934 4.42873685 -7.4775238 1.59994507 C-4.8130223 0.09522164 -3.05250284 0.0077893 0 0 Z " fill="#0C54AA" transform="translate(87.331787109375,359.61181640625)"/>
<path d="M0 0 C1.59702003 -0.01418472 1.59702003 -0.01418472 3.2263031 -0.02865601 C4.37115677 -0.02258331 5.51601044 -0.01651062 6.69555664 -0.01025391 C8.46715904 -0.01455917 8.46715904 -0.01455917 10.27455139 -0.01895142 C12.77190632 -0.02099262 15.26927722 -0.01545888 17.76660156 -0.00292969 C21.58768539 0.01310793 25.4077091 -0.00277016 29.22875977 -0.02197266 C31.65519439 -0.01998996 34.08162836 -0.01614573 36.50805664 -0.01025391 C37.65088608 -0.0163266 38.79371552 -0.02239929 39.97117615 -0.02865601 C41.03900833 -0.01919952 42.10684052 -0.00974304 43.20703125 0 C44.14316757 0.00238678 45.07930389 0.00477356 46.04380798 0.00723267 C50.10555828 0.59682444 52.63651568 2.31663353 55.45446777 5.24343872 C56.95628831 7.89722645 57.06066546 9.66220489 57.08813477 12.70410156 C57.11200256 14.29628006 57.11200256 14.29628006 57.13635254 15.92062378 C57.13655396 17.06234039 57.13675537 18.20405701 57.13696289 19.38037109 C57.14838318 21.14841599 57.14838318 21.14841599 57.16003418 22.95217896 C57.17083883 25.4453113 57.17368683 27.93848892 57.16918945 30.43164062 C57.16821825 34.24214428 57.20981696 38.05062752 57.25415039 41.86083984 C57.2593582 44.28401273 57.26204557 46.70719261 57.26196289 49.13037109 C57.27835815 50.26803925 57.29475342 51.4057074 57.31164551 52.57785034 C57.23474729 61.4015882 57.23474729 61.4015882 54.25610352 65.09179688 C50.68495358 68.26068709 49.05290817 68.5194364 44.37988281 68.58105469 C43.27501022 68.59711761 42.17013763 68.61318054 41.03178406 68.62973022 C35.97659865 68.67410394 30.92154544 68.7152416 25.86621094 68.73828125 C23.19729728 68.75161647 20.53019102 68.78214161 17.86132812 68.8203125 C14.01937776 68.87499711 10.17846845 68.89694346 6.33618164 68.91162109 C5.14333054 68.93429047 3.95047943 68.95695984 2.72148132 68.98031616 C-6.49272332 68.95674968 -6.49272332 68.95674968 -9.56103516 65.98046875 C-12.0036748 62.40457633 -12.46117911 60.66135413 -12.49291992 56.37524414 C-12.50252747 55.33043381 -12.51213501 54.28562347 -12.52203369 53.20915222 C-12.52628357 52.07584976 -12.53053345 50.9425473 -12.53491211 49.77490234 C-12.54061218 48.61320023 -12.54631226 47.45149811 -12.55218506 46.2545929 C-12.56164507 43.79237787 -12.568173 41.33015012 -12.57202148 38.86791992 C-12.58172021 35.10166287 -12.61273219 31.33595294 -12.64428711 27.56982422 C-12.65081766 25.17985351 -12.65606793 22.78987889 -12.65991211 20.39990234 C-12.67225891 19.27267258 -12.68460571 18.14544281 -12.69732666 16.98405457 C-12.69432556 15.92978775 -12.69132446 14.87552094 -12.68823242 13.78930664 C-12.69187805 12.8649028 -12.69552368 11.94049896 -12.69927979 10.98808289 C-12.12647157 6.93563835 -10.39189345 4.41054272 -7.4775238 1.59994507 C-4.8130223 0.09522164 -3.05250284 0.0077893 0 0 Z " fill="#0B53AA" transform="translate(87.331787109375,275.61181640625)"/>
<path d="M0 0 C2.93291738 2.06801169 5.46083792 4.4716659 8 7 C8.86044922 7.60908203 8.86044922 7.60908203 9.73828125 8.23046875 C11.48357058 10.67819651 11.44219673 12.94755906 11.38679504 15.88777161 C10.70026772 19.63679197 8.10529978 21.85425624 5.41796875 24.328125 C4.8479866 24.88441589 4.27800446 25.44070679 3.69075012 26.01385498 C1.87434144 27.77911186 0.03248451 29.51467819 -1.8125 31.25 C-3.64038569 33.00538687 -5.46266784 34.76641101 -7.28361511 36.5289917 C-8.41575629 37.62083894 -9.55300519 38.70742197 -10.69599915 39.78790283 C-12.9002425 41.88243638 -14.93663111 43.91439936 -16.7487793 46.36230469 C-17.16168213 46.90274414 -17.57458496 47.44318359 -18 48 C-18.66 48 -19.32 48 -20 48 C-20.23196075 48.55662323 -20.46392151 49.11324646 -20.70291138 49.68673706 C-22.3437512 52.61305518 -24.38195069 54.63641111 -26.75341797 57.01220703 C-27.23496338 57.49725708 -27.71650879 57.98230713 -28.21264648 58.48205566 C-29.800843 60.07903216 -31.39621719 61.66860765 -32.9921875 63.2578125 C-34.10105162 64.36802434 -35.20961874 65.47853288 -36.31790161 66.58932495 C-38.63984778 68.91421733 -40.96536679 71.23545987 -43.29345703 73.55419922 C-46.27506622 76.52441424 -49.24760706 79.50351723 -52.21752739 82.48541451 C-54.50445573 84.77957498 -56.79613267 87.06894421 -59.08926773 89.35689926 C-60.18714287 90.45344166 -61.28353818 91.55146778 -62.37841415 92.65100479 C-63.91008188 94.18775991 -65.44802972 95.71794406 -66.98779297 97.24658203 C-68.29778763 98.55418991 -68.29778763 98.55418991 -69.63424683 99.88821411 C-72.77106759 102.68829229 -75.05561553 103.7995317 -79.14672852 104.66796875 C-85.24043319 103.6116185 -88.40885585 99.61038173 -92.65234375 95.3125 C-94.00254356 93.97590332 -94.00254356 93.97590332 -95.38002014 92.61230469 C-97.27771225 90.72375478 -99.16660105 88.82962087 -101.04516602 86.92236328 C-103.44668447 84.48657809 -105.88037914 82.08619858 -108.32547665 79.69425964 C-110.6619344 77.39860696 -112.96805954 75.07293707 -115.27734375 72.75 C-116.15220932 71.89446533 -117.02707489 71.03893066 -117.92845154 70.1574707 C-124.52492934 63.37927966 -124.52492934 63.37927966 -124.68188477 58.55859375 C-123.83152058 54.12074613 -122.45267003 52.83886202 -119 50 C-118.195625 49.071875 -117.39125 48.14375 -116.5625 47.1875 C-114 45 -114 45 -111.1875 44.3125 C-101.29824304 46.44547699 -93.68638634 57.27445584 -87.0703125 64.27148438 C-86.21695313 65.14998047 -85.36359375 66.02847656 -84.484375 66.93359375 C-83.71834961 67.73853271 -82.95232422 68.54347168 -82.16308594 69.37280273 C-80.18878926 71.18679645 -80.18878926 71.18679645 -78.03173828 71.0456543 C-75.17408947 69.57493694 -73.26770267 67.62031368 -71.0078125 65.3359375 C-70.30517776 64.63049301 -70.30517776 64.63049301 -69.58834839 63.91079712 C-68.59817733 62.9139122 -67.61160652 61.91344012 -66.62841797 60.90966797 C-65.1439443 59.39433807 -63.64935329 57.88965508 -62.15234375 56.38671875 C-58.16276929 52.36377165 -54.20520887 48.33748036 -50.55078125 44.00390625 C-47.97289347 40.96807822 -45.2951425 38.56483987 -42.22265625 36.06640625 C-40.32916111 34.30602149 -38.72015308 32.54738411 -37.046875 30.5859375 C-32.26864347 25.04951991 -27.07861912 19.92885761 -21.90063477 14.77026367 C-20.17019863 13.04525287 -18.4452551 11.31487572 -16.72070312 9.58398438 C-15.62011271 8.48405367 -14.51921272 7.38443262 -13.41796875 6.28515625 C-12.64612495 5.51027611 -12.64612495 5.51027611 -11.85868835 4.71974182 C-7.87322333 0.7605713 -5.74615669 -0.85128247 0 0 Z " fill="#0D56B0" transform="translate(551,358)"/>
<path d="M0 0 C1.13005966 -0.00336868 2.26011932 -0.00673737 3.42442322 -0.01020813 C5.80553759 -0.00991003 8.18669107 0.0052682 10.56762695 0.03442383 C14.20708485 0.07413409 17.84290306 0.05510558 21.48242188 0.02929688 C23.80079535 0.03685543 26.11916076 0.04780832 28.4375 0.0625 C29.52200943 0.0555159 30.60651886 0.0485318 31.72389221 0.04133606 C40.12787993 0.19808856 40.12787993 0.19808856 43.82202148 3.18041992 C46.85899209 6.54447338 47.27813967 8.00351894 47.31347656 12.4074707 C47.32308411 13.37219803 47.33269165 14.33692535 47.34259033 15.33088684 C47.34684021 16.37669418 47.35109009 17.42250153 47.35546875 18.5 C47.36116882 19.57291794 47.3668689 20.64583588 47.3727417 21.75126648 C47.38220058 24.02516694 47.38872919 26.29908117 47.39257812 28.57299805 C47.40227497 32.0495605 47.43328697 35.52552973 47.46484375 39.00195312 C47.47137454 41.2096319 47.47662472 43.41731491 47.48046875 45.625 C47.49281555 46.66473465 47.50516235 47.7044693 47.5178833 48.77571106 C47.48971671 57.91884025 47.48971671 57.91884025 44.15234375 61.76171875 C41.04536437 64.55220388 39.06343338 65.14132858 34.91235352 65.16577148 C33.86769424 65.17845566 32.82303497 65.19113983 31.74671936 65.20420837 C30.62373947 65.20127274 29.50075958 65.1983371 28.34375 65.1953125 C26.60544167 65.20317528 26.60544167 65.20317528 24.83201599 65.2111969 C22.38175253 65.21761905 19.93145825 65.21627764 17.48120117 65.20776367 C13.73235135 65.19925847 9.98502722 65.22800742 6.23632812 65.25976562 C3.85546921 65.26137783 1.47460759 65.26079975 -0.90625 65.2578125 C-2.02720566 65.26904648 -3.14816132 65.28028046 -4.30308533 65.29185486 C-12.05189482 65.22248054 -12.05189482 65.22248054 -16.03149414 62.91821289 C-18.77558616 59.65990333 -18.98411208 56.9466144 -19.07226562 52.8347168 C-19.09478394 51.83325119 -19.11730225 50.83178558 -19.14050293 49.79997253 C-19.2115752 45.22520649 -19.26900036 40.65059936 -19.30761719 36.07543945 C-19.33425282 33.66312843 -19.37520866 31.25093193 -19.43066406 28.83911133 C-19.50974363 25.35841926 -19.54291482 21.87989582 -19.56640625 18.3984375 C-19.59939819 17.32325363 -19.63239014 16.24806976 -19.66638184 15.14030457 C-19.6533939 10.27557238 -19.55737542 6.68085718 -16.04321289 3.08203125 C-11.11390331 -0.34527038 -5.80722982 -0.08198601 0 0 Z " fill="#90BBE9" transform="translate(94.84765625,444.23828125)"/>
<path d="M0 0 C1.53835062 -0.00935994 1.53835062 -0.00935994 3.10777903 -0.01890898 C6.55495387 -0.03490328 10.00142792 -0.02220913 13.4486084 -0.00964355 C15.9155875 -0.01506179 18.38256337 -0.02218276 20.84953308 -0.03088379 C26.86094237 -0.04725657 32.87207516 -0.04482326 38.88347375 -0.03323323 C43.76846798 -0.02420435 48.6534062 -0.02297252 53.53840637 -0.02732849 C54.23332519 -0.02794142 54.92824401 -0.02855436 55.64422098 -0.02918586 C57.05587893 -0.03046475 58.46753687 -0.0317616 59.8791948 -0.03307623 C73.12031089 -0.04448591 86.36131626 -0.03136228 99.60241419 -0.00987476 C110.96705391 0.00799661 122.33153022 0.00489261 133.69616699 -0.0135498 C146.88947984 -0.03494971 160.08269561 -0.04338724 173.27602339 -0.03110075 C174.6825253 -0.02982654 176.08902723 -0.02856905 177.49552917 -0.02732849 C178.18757805 -0.02671139 178.87962693 -0.02609429 179.59264699 -0.02545848 C184.47249899 -0.02200293 189.35228948 -0.02783832 194.23213196 -0.0372467 C200.79849566 -0.04962827 207.36459797 -0.04082927 213.93094826 -0.01766968 C216.34487709 -0.01236796 218.75883185 -0.01392118 221.17275047 -0.02272034 C224.46016711 -0.03360123 227.7465832 -0.02000157 231.03393555 0 C231.99618372 -0.00892289 232.9584319 -0.01784577 233.94983912 -0.02703905 C240.37192494 0.04909922 240.37192494 0.04909922 243.60965729 2.35218048 C245.54296445 5.31366969 245.5951136 7.0390596 245.01696777 10.50793457 C243.6124506 12.66368866 243.6124506 12.66368866 241.01696777 14.50793457 C237.67951525 15.11331823 234.37317942 15.04709982 230.98924255 15.01586914 C229.95888636 15.0221091 228.92853016 15.02834907 227.86695105 15.03477812 C224.40362378 15.0507727 220.94099401 15.03807819 217.47766113 15.0255127 C214.99920744 15.03093088 212.52075696 15.03805183 210.04231262 15.04675293 C204.0031653 15.06312543 197.9642932 15.06069274 191.92515653 15.04910237 C187.01822396 15.04007419 182.11134713 15.03884136 177.20440865 15.04319763 C176.15743429 15.04411703 176.15743429 15.04411703 175.08930894 15.045055 C173.67144825 15.04633388 172.25358758 15.04763073 170.83572692 15.04894537 C157.53693726 15.06035473 144.23825785 15.04723148 130.93948627 15.0257439 C119.52279405 15.00786864 108.10626449 15.0109798 96.6895752 15.02941895 C83.43730841 15.05081266 70.18513825 15.0592602 56.93285662 15.04696989 C55.52047481 15.04569567 54.10809298 15.04443818 52.69571114 15.04319763 C51.65328059 15.04227198 51.65328059 15.04227198 50.58979083 15.04132763 C45.68692682 15.0378705 40.78412399 15.04371075 35.88126945 15.05311584 C29.28618203 15.06548886 22.69135509 15.05671256 16.09628105 15.03353882 C13.67064426 15.0282332 11.24498167 15.02979691 8.81935501 15.03858948 C5.51845176 15.04945498 2.2185482 15.03588973 -1.08229065 15.01586914 C-2.5358686 15.02925347 -2.5358686 15.02925347 -4.01881176 15.04290819 C-10.46284193 14.96663912 -10.46284193 14.96663912 -13.07448483 12.66368866 C-14.32597146 9.69422618 -14.44834656 7.69866143 -13.98303223 4.50793457 C-10.51665897 -0.81672395 -5.74323646 -0.05325679 0 0 Z " fill="#97BFE8" transform="translate(341.9830322265625,200.4920654296875)"/>
<path d="M0 0 C0.17015625 0.55429687 0.3403125 1.10859375 0.515625 1.6796875 C0.75796875 2.40414062 1.0003125 3.12859375 1.25 3.875 C1.48203125 4.59429688 1.7140625 5.31359375 1.953125 6.0546875 C3.29983366 8.55715358 4.38334786 8.95383155 7 10 C9.3154578 10.29595447 9.3154578 10.29595447 11.82264709 10.24888897 C12.79652846 10.25348777 13.77040983 10.25808656 14.77380276 10.26282471 C15.84110654 10.25768115 16.90841032 10.25253759 18.00805664 10.24723816 C19.71179113 10.25085978 19.71179113 10.25085978 21.4499445 10.25455457 C25.27007291 10.26020705 29.09003525 10.25151661 32.91015625 10.24291992 C35.64313987 10.24288578 38.37611837 10.24585027 41.10910034 10.24867249 C47.77014613 10.25371627 54.4311423 10.24807059 61.09218192 10.23882218 C68.84639406 10.22844264 76.60059544 10.22850826 84.35481322 10.22899476 C98.18870107 10.22949552 112.0225658 10.22033038 125.85644531 10.20581055 C139.28548605 10.19172288 152.71450645 10.18463977 166.14355469 10.18530273 C166.97062695 10.18534269 167.79769922 10.18538265 168.64983428 10.18542381 C169.88828048 10.18548435 169.88828048 10.18548435 171.1517458 10.1855461 C186.43214085 10.18623575 201.71252725 10.18034697 216.9929195 10.17139288 C222.40023804 10.1683749 227.80755498 10.16731313 233.21487427 10.16686058 C239.80300618 10.1661788 246.39112351 10.16171904 252.97924924 10.15252777 C256.34172468 10.14790726 259.70416553 10.14539626 263.06664658 10.14612198 C266.7084352 10.14661065 270.35016316 10.1409768 273.99194336 10.13371277 C275.05924714 10.13526137 276.12655092 10.13680997 277.22619724 10.1384055 C278.20007861 10.13518106 279.17395998 10.13195661 280.17735291 10.12863445 C281.01816375 10.12793003 281.85897459 10.1272256 282.72526455 10.12649983 C284.97672537 10.00129432 286.87229159 9.74916772 289 9 C290.1375213 6.91965706 290.1375213 6.91965706 290.75 4.4375 C290.99234375 3.61121094 291.2346875 2.78492188 291.484375 1.93359375 C291.65453125 1.29550781 291.8246875 0.65742187 292 0 C313.10202229 -0.19970368 334.04729193 0.51539014 355.0625 2.4375 C355.75131256 2.49894196 356.44012512 2.56038391 357.14981079 2.62368774 C364.27083885 3.2669262 371.12905526 3.97810416 378 6 C378 6.99 378 7.98 378 9 C368.68243695 11.18571752 359.33082966 11.8444777 349.8125 12.5 C348.91939117 12.56314392 348.02628235 12.62628784 347.10610962 12.69134521 C323.08801216 14.37113111 299.02718496 15.15648536 274.96429539 15.87954903 C271.65091826 15.98022253 268.33768269 16.08462099 265.02445143 16.18995017 C241.96008679 16.91499839 218.91472423 17.16388661 195.83981037 17.16725707 C193.01840596 17.16798414 190.197006 17.17014842 187.37560272 17.17275429 C177.39965012 17.18192966 167.42371059 17.18610013 157.44775391 17.18530273 C149.3660278 17.18477311 141.28435043 17.19177008 133.20263672 17.20581055 C-73.80126037 17.55713168 -73.80126037 17.55713168 -90 8 C-87.71394197 5.32002822 -86.19775972 4.56537401 -82.72265625 4.12109375 C-81.83537842 4.00548096 -80.94810059 3.88986816 -80.03393555 3.77075195 C-79.05336182 3.66077881 -78.07278809 3.55080566 -77.0625 3.4375 C-76.02198486 3.31528076 -74.98146973 3.19306152 -73.90942383 3.06713867 C-49.38151201 0.3736489 -24.65872382 -0.41034743 0 0 Z " fill="#C8E2F9" transform="translate(192,662)"/>
<path d="M0 0 C0.73971841 -0.00623996 1.47943683 -0.01247993 2.24157095 -0.01890898 C4.72147035 -0.03487023 7.20039108 -0.02222315 9.68029785 -0.00964355 C11.45763218 -0.01506331 13.23496202 -0.02218514 15.01228333 -0.03088379 C19.84078523 -0.04913761 24.66894572 -0.04204113 29.49745369 -0.02936745 C34.54714004 -0.01925044 39.59679689 -0.02862951 44.64648438 -0.03491211 C53.12704728 -0.0421923 61.60747092 -0.03259104 70.0880127 -0.0135498 C79.89699702 0.00821963 89.7056488 0.00116853 99.51462507 -0.02085543 C107.93171269 -0.03899882 116.34870011 -0.04157294 124.76580095 -0.03110075 C129.79502852 -0.02485998 134.8240997 -0.02404621 139.85331726 -0.0372467 C144.58121011 -0.04878914 149.30867361 -0.04080893 154.03652 -0.01766968 C155.77317275 -0.01237398 157.50986154 -0.01391105 159.24650002 -0.02272034 C161.61444917 -0.03362589 163.98101626 -0.01997431 166.34887695 0 C167.38369965 -0.01338433 167.38369965 -0.01338433 168.43942785 -0.02703905 C171.73187028 0.02696073 173.45172411 0.34400648 176.13228607 2.31702423 C177.67443848 4.50793457 177.67443848 4.50793457 177.67443848 8.07043457 C176.67443848 11.50793457 176.67443848 11.50793457 175.06741333 13.19854832 C171.74484112 15.01659098 169.16809025 14.88864607 165.38684082 14.89561462 C164.28338853 14.90369293 164.28338853 14.90369293 163.15764427 14.91193444 C160.6917182 14.92624642 158.22632648 14.91910254 155.76037598 14.9119873 C153.99289518 14.91768915 152.22541806 14.92465268 150.45794678 14.93278503 C145.65636235 14.95075096 140.85496032 14.94954176 136.05335236 14.94384265 C132.0471661 14.94075613 128.04101515 14.94683717 124.03483391 14.9528814 C114.58589628 14.96693594 105.13704905 14.96535726 95.68811035 14.95397949 C85.93366747 14.94249357 76.17949937 14.95657981 66.4250927 14.98337597 C58.05472308 15.0055108 49.68443986 15.01217547 41.31404305 15.00629956 C36.3127497 15.00292391 31.31163257 15.00538541 26.31036377 15.02255058 C21.60875284 15.03798266 16.90755009 15.03410592 12.20595551 15.01524544 C10.47897166 15.01154934 8.75195781 15.01469762 7.02500153 15.02513123 C4.67020496 15.03827357 2.31677325 15.02685539 -0.03796387 15.00914001 C-1.35646332 15.00893073 -2.67496277 15.00872145 -4.03341675 15.00850582 C-7.32556152 14.50793457 -7.32556152 14.50793457 -9.74978638 12.66410923 C-11.32556152 10.50793457 -11.32556152 10.50793457 -11.82556152 7.50793457 C-10.68893363 0.6881672 -6.12583098 -0.0792311 0 0 Z " fill="#95BDE7" transform="translate(180.3255615234375,293.4920654296875)"/>
<path d="M0 0 C0.65789851 -0.0055344 1.31579701 -0.01106879 1.99363184 -0.0167709 C4.20263878 -0.03040653 6.41052146 -0.01539399 8.61950684 -0.00050354 C10.20127341 -0.0042857 11.78303667 -0.00978488 13.36479187 -0.01687622 C17.66440559 -0.03086178 21.96362054 -0.01963951 26.2632122 -0.00316501 C30.75816046 0.0106638 35.25308504 0.0042279 39.74804688 0.0007019 C47.29722537 -0.00200194 54.84624503 0.01149033 62.39538574 0.03465271 C71.12904075 0.06126358 79.86243012 0.06301022 88.59611177 0.05126435 C96.99014981 0.04049317 105.38409156 0.04666843 113.77812195 0.06081963 C117.35383881 0.06658518 120.92948533 0.06649229 124.50520325 0.06175423 C128.71430652 0.05698942 132.92311814 0.06706531 137.13216591 0.08870888 C138.67895334 0.09428373 140.22576875 0.09473565 141.77255821 0.08975601 C143.88019227 0.08382068 145.98692932 0.09627302 148.09448242 0.11352539 C149.86539371 0.11717023 149.86539371 0.11717023 151.67208099 0.12088871 C154.54724121 0.50120544 154.54724121 0.50120544 156.42710114 1.80668545 C158.31752284 4.66646831 157.9017239 7.19270039 157.54724121 10.50120544 C156.42710114 12.19572544 156.42710114 12.19572544 154.54724121 13.50120544 C151.67208099 13.88152218 151.67208099 13.88152218 148.09448242 13.8888855 C147.43658391 13.89427104 146.77868541 13.89965657 146.10085058 13.90520531 C143.89203639 13.91953532 141.68381724 13.91236919 139.47497559 13.90525818 C137.89320899 13.9109591 136.31144651 13.91792228 134.72969055 13.92605591 C130.43015802 13.9440322 126.13082907 13.94281072 121.83127022 13.93711352 C118.24505876 13.93402846 114.6588868 13.94010641 111.07268095 13.94615227 C102.61478627 13.96021023 94.15699256 13.95862534 85.69909668 13.94725037 C76.96540556 13.93576425 68.23202133 13.94985013 59.49837065 13.97664684 C52.00615887 13.9987762 44.51404362 14.00544759 37.02180147 13.99957043 C32.5442193 13.99619343 28.06683395 13.99866506 23.58927917 14.01582146 C19.38013348 14.03124494 15.17144389 14.02738671 10.96231651 14.00851631 C9.41551999 14.00481777 7.86869001 14.00797558 6.32192421 14.0184021 C4.21408424 14.03152854 2.10777304 14.02014197 0 14.00241089 C-1.77091129 14.00209696 -1.77091129 14.00209696 -3.57759857 14.0017767 C-6.45275879 13.50120544 -6.45275879 13.50120544 -8.33261871 11.6261301 C-9.7324018 8.97071792 -9.89757847 7.46667001 -9.45275879 4.50120544 C-7.08806282 0.01533722 -4.87516265 0.00086421 0 0 Z " fill="#9BC2E9" transform="translate(178.4527587890625,378.49879455566406)"/>
<path d="M0 0 C1.27873993 -0.00708481 2.55747986 -0.01416962 3.87496948 -0.02146912 C5.29498326 -0.01917523 6.71499671 -0.01666552 8.13500977 -0.01396179 C9.62810522 -0.0183082 11.12119844 -0.02349111 12.61428833 -0.02944946 C16.67205901 -0.04285735 20.72973666 -0.04341624 24.78752518 -0.04088616 C28.17241767 -0.03981782 31.55729123 -0.04469621 34.94217968 -0.04949158 C42.92541604 -0.06059261 50.90860535 -0.0610206 58.8918457 -0.05497742 C67.13470342 -0.0489338 75.37739061 -0.06125707 83.62021923 -0.08254749 C90.69204137 -0.1001434 97.76380912 -0.1061681 104.83565235 -0.10290974 C109.06169584 -0.10109378 113.28761764 -0.10376425 117.51364136 -0.11762428 C121.48633577 -0.1301657 125.45876356 -0.12829379 129.4314537 -0.11521339 C130.89117395 -0.11284011 132.35091274 -0.11560911 133.81061172 -0.12383652 C135.79966092 -0.13424105 137.78878555 -0.12443597 139.77783203 -0.11352539 C140.89207047 -0.11369313 142.0063089 -0.11386087 143.15431213 -0.1140337 C145.88891602 0.26069641 145.88891602 0.26069641 147.74742126 1.56533527 C149.66877031 4.41894498 149.2444259 6.94260415 148.88891602 10.26069641 C147.74700069 11.95521641 147.74700069 11.95521641 145.88891602 13.26069641 C143.15710545 13.64101315 143.15710545 13.64101315 139.78456116 13.64837646 C138.50726639 13.6582811 137.22997162 13.66818573 135.91397095 13.6783905 C134.49554348 13.67415222 133.07711693 13.66959433 131.65869141 13.66474915 C130.16721585 13.67045041 128.67574467 13.67741372 127.1842804 13.68554688 C123.13053706 13.70352097 119.07700967 13.70230193 115.02323842 13.69660449 C111.64091725 13.69351863 108.25863792 13.69959839 104.87632269 13.70564324 C96.89781919 13.71970093 88.91942274 13.71811698 80.94091797 13.70674133 C72.70597636 13.69525961 64.47136039 13.70933372 56.2364617 13.73613781 C49.16970716 13.75827966 42.10305495 13.7649356 35.03626817 13.7590614 C30.81407307 13.75568686 26.59208672 13.75813954 22.36992073 13.77531242 C18.39960836 13.79075543 14.4297791 13.78685591 10.45948601 13.76800728 C9.00180022 13.76431394 7.54407885 13.76745157 6.08642578 13.77789307 C4.09773841 13.79105153 2.10892673 13.7771793 0.12025452 13.76190186 C-0.99306212 13.76169257 -2.10637877 13.76148329 -3.25343227 13.76126766 C-6.79187274 13.1414435 -8.00661866 12.13614741 -10.11108398 9.26069641 C-10.04858398 5.63569641 -10.04858398 5.63569641 -9.11108398 2.26069641 C-5.59227243 -0.08517796 -4.16501705 0.00767362 0 0 Z " fill="#98C1EA" transform="translate(179.111083984375,466.7393035888672)"/>
<path d="M0 0 C1.28753174 0.00607269 1.28753174 0.00607269 2.60107422 0.01226807 C3.92147705 0.00939789 3.92147705 0.00939789 5.26855469 0.00646973 C7.13135056 0.00510755 8.99415591 0.00880625 10.85693359 0.01715088 C13.71457158 0.02785 16.57158088 0.01725675 19.42919922 0.00445557 C21.23649228 0.00577716 23.04378495 0.00833954 24.85107422 0.01226807 C25.70942871 0.0082196 26.5677832 0.00417114 27.45214844 0 C33.49615677 0.04797562 33.49615677 0.04797562 35.72607422 2.27789307 C35.91376075 5.20712336 35.98161063 8.04017703 35.95654297 10.96929932 C35.95608475 11.8297435 35.95562653 12.69018768 35.95515442 13.57670593 C35.95213127 15.39663064 35.9442431 17.21655273 35.93188477 19.03643799 C35.9136257 21.83251031 35.91137506 24.62825173 35.91162109 27.42437744 C35.90670612 29.18935428 35.90087789 30.95432887 35.89404297 32.71929932 C35.89293015 33.56094131 35.89181732 34.40258331 35.89067078 35.26972961 C35.84212127 41.16184601 35.84212127 41.16184601 34.72607422 42.27789307 C31.63525957 42.37906227 28.56724867 42.41757864 25.47607422 42.41070557 C24.54762695 42.41166229 23.61917969 42.41261902 22.66259766 42.41360474 C20.69547457 42.41428662 18.72834926 42.41243178 16.76123047 42.40826416 C13.73904396 42.40291602 10.71700607 42.40820889 7.69482422 42.41461182 C5.78857389 42.41395104 3.88232365 42.41266988 1.97607422 42.41070557 C0.61047363 42.41374191 0.61047363 42.41374191 -0.78271484 42.4168396 C-7.1589761 42.39284275 -7.1589761 42.39284275 -8.27392578 41.27789307 C-8.38741739 38.4169509 -8.4381107 35.58105851 -8.44189453 32.71929932 C-8.44522293 31.85981186 -8.44855133 31.0003244 -8.45198059 30.11479187 C-8.45705348 28.29310645 -8.45938881 26.47141171 -8.45922852 24.64971924 C-8.46141381 21.85570017 -8.47956222 19.0620765 -8.49853516 16.26812744 C-8.50146918 14.50185276 -8.50345392 12.73557619 -8.50439453 10.96929932 C-8.51158005 10.12968155 -8.51876556 9.29006378 -8.52616882 8.42500305 C-8.49713359 1.08811916 -7.30992604 0.05802411 0 0 Z " fill="#FCFDFD" transform="translate(95.27392578125,455.72210693359375)"/>
<path d="M0 0 C0.92250549 0.00108953 1.84501099 0.00217907 2.79547119 0.00330162 C3.85544312 -0.00508736 4.91541504 -0.01347633 6.00750732 -0.02211952 C7.17020142 -0.01088051 8.33289551 0.00035851 9.53082275 0.0119381 C10.75539185 0.0081414 11.97996094 0.00434471 13.24163818 0.00043297 C16.60142478 -0.00571356 19.96023004 0.00604873 23.31990051 0.02633905 C26.83388674 0.04389836 30.34785629 0.04038519 33.86187744 0.03961754 C39.76333506 0.04149101 45.6645871 0.05886076 51.565979 0.08615685 C58.3910019 0.11760822 65.2157996 0.12815306 72.04088974 0.12668574 C78.60352456 0.12546533 85.16608596 0.13567482 91.72869873 0.15226936 C94.52289401 0.15933416 97.31706331 0.16299573 100.11126709 0.16405678 C104.01161675 0.16643754 107.91177883 0.18585601 111.81207275 0.2072506 C112.97476685 0.20634422 114.13746094 0.20543785 115.33538818 0.20450401 C116.92534607 0.21729897 116.92534607 0.21729897 118.54742432 0.2303524 C119.46992981 0.23370409 120.3924353 0.23705578 121.34289551 0.24050903 C123.67144775 0.49777794 123.67144775 0.49777794 126.67144775 2.49777794 C127.06988525 4.55637169 127.06988525 4.55637169 127.04644775 6.93527794 C127.05418213 7.71773888 127.0619165 8.50019981 127.06988525 9.30637169 C126.56906456 12.06088551 125.87118835 12.79538866 123.67144775 14.49777794 C121.36130619 14.87809467 121.36130619 14.87809467 118.59211731 14.88545799 C117.5420047 14.89536263 116.49189209 14.90526726 115.40995789 14.91547203 C114.25818558 14.91097038 113.10641327 14.90646873 111.91973877 14.90183067 C110.09992493 14.91212555 110.09992493 14.91212555 108.24334717 14.9226284 C104.9146614 14.93781043 101.58653481 14.93938587 98.25785565 14.93368602 C95.47946581 14.93059833 92.70112683 14.93668196 89.92274421 14.94272476 C83.3681513 14.9567786 76.81368869 14.95520183 70.25909424 14.94382286 C63.49647836 14.9323422 56.73425909 14.94641409 49.97169548 14.97321934 C44.16607193 14.9953701 38.36057293 15.00201512 32.55491012 14.99614292 C29.08723103 14.9927704 25.61980613 14.99520746 22.15216255 15.01239395 C18.28546708 15.03072124 14.41925994 15.01668234 10.55255127 14.99948692 C9.40280319 15.00915489 8.25305511 15.01882286 7.06846619 15.0287838 C6.01553375 15.01894966 4.96260132 15.00911552 3.87776184 14.99898338 C2.96355248 14.9987741 2.04934313 14.99856482 1.10743046 14.99834919 C-2.11291421 14.33659902 -3.31601289 13.04743487 -5.32855225 10.49777794 C-5.81519907 7.16077115 -5.77602585 5.29723582 -4.12145996 2.34118271 C-2.32855225 0.49777794 -2.32855225 0.49777794 0 0 Z " fill="#96BFE9" transform="translate(333.32855224609375,240.50222206115723)"/>
<path d="M0 0 C4.10360793 0.56234627 5.66927172 2.04470084 8.7265625 4.80859375 C9.78312591 5.73928917 10.84178823 6.66760628 11.90234375 7.59375 C12.71179443 8.30748779 12.71179443 8.30748779 13.53759766 9.03564453 C16.0777739 11.2189302 18.74348444 13.22574339 21.4140625 15.24609375 C26.66091514 19.23234418 31.80275234 23.33759475 36.9140625 27.49609375 C37.61821289 28.06884033 38.32236328 28.64158691 39.04785156 29.23168945 C45.13658588 34.20004248 45.13658588 34.20004248 45.5390625 37.62109375 C45.07375931 42.35167619 43.59703725 44.38691976 40.1640625 47.43359375 C37.43265224 49.60252249 34.64589727 51.67482347 31.828125 53.73046875 C26.64580115 57.51788618 21.62073981 61.51071321 16.5715332 65.47265625 C4.0610705 75.25419215 4.0610705 75.25419215 0.0390625 76.05859375 C-3.94662859 75.19213917 -5.43039947 73.6881452 -7.8359375 70.43359375 C-8.6484375 67.55859375 -8.6484375 67.55859375 -7.8359375 64.43359375 C-5.5506052 61.63640469 -2.70848884 59.59997622 0.1640625 57.43359375 C0.76476562 56.9761377 1.36546875 56.51868164 1.984375 56.04736328 C6.01207291 52.98216671 10.06491819 49.95249151 14.1328125 46.94091797 C17.48674767 44.45207233 20.82526271 41.94268847 24.1640625 39.43359375 C22.49883894 35.83148154 20.96683198 34.31140873 17.6640625 32.05859375 C16.69726562 31.37152344 15.73046875 30.68445313 14.734375 29.9765625 C14.18168945 29.58388184 13.62900391 29.19120117 13.05957031 28.78662109 C9.18749786 26.02270745 5.35000456 23.21873949 1.5390625 20.37109375 C0.73275391 19.79375488 -0.07355469 19.21641602 -0.90429688 18.62158203 C-4.67244699 15.77774077 -6.55939932 14.32601527 -7.98828125 9.71484375 C-7.78154796 5.26212665 -7.78154796 5.26212665 -5.7734375 2.99609375 C-2.8359375 0.43359375 -2.8359375 0.43359375 0 0 Z " fill="#1056B0" transform="translate(201.8359375,152.56640625)"/>
<path d="M0 0 C3.91323968 1.04353058 5.44584052 2.47844131 7.8125 5.75 C8.625 9.125 8.625 9.125 7.8125 12.75 C5.57461548 15.60912691 2.71459725 17.59761121 -0.1875 19.75 C-1.45902263 20.71523848 -2.72979641 21.68146388 -4 22.6484375 C-6.7188007 24.70826059 -9.44729897 26.75389476 -12.1875 28.78515625 C-12.83847656 29.26871582 -13.48945312 29.75227539 -14.16015625 30.25048828 C-15.58064912 31.30114666 -17.00551514 32.34590624 -18.43359375 33.38623047 C-19.15675781 33.91748535 -19.87992188 34.44874023 -20.625 34.99609375 C-21.28371094 35.47618896 -21.94242188 35.95628418 -22.62109375 36.45092773 C-24.32268294 37.68454511 -24.32268294 37.68454511 -25.1875 39.75 C-24.64867188 39.98847656 -24.10984375 40.22695312 -23.5546875 40.47265625 C-20.54827155 42.0949302 -18.0076873 44.08713583 -15.3125 46.1875 C-14.75457764 46.62126953 -14.19665527 47.05503906 -13.62182617 47.50195312 C-11.80760354 48.91444244 -9.99755673 50.3321775 -8.1875 51.75 C-6.88943224 52.76185901 -5.59125434 53.77357675 -4.29296875 54.78515625 C-3.02836479 55.77307785 -1.76403472 56.76135016 -0.5 57.75 C0.09989746 58.21849365 0.69979492 58.6869873 1.31787109 59.16967773 C7.74108277 64.21437079 7.74108277 64.21437079 8.1875 67.5625 C7.71594753 71.57069603 6.85144259 73.10066544 3.8125 75.75 C-0.47296842 76.36369572 -3.15783147 76.1185233 -6.58984375 73.546875 C-7.78173934 72.54713942 -8.9595246 71.5304142 -10.125 70.5 C-11.43676812 69.39471696 -12.75064269 68.29192997 -14.06640625 67.19140625 C-14.74074707 66.62180176 -15.41508789 66.05219727 -16.10986328 65.46533203 C-19.50146215 62.66517062 -23.02865028 60.05417691 -26.5625 57.4375 C-27.89601361 56.4416476 -29.22935307 55.44556196 -30.5625 54.44921875 C-32.7460069 52.82123505 -34.9335684 51.19937771 -37.125 49.58203125 C-38.3315625 48.67517578 -38.3315625 48.67517578 -39.5625 47.75 C-40.23023437 47.255 -40.89796875 46.76 -41.5859375 46.25 C-43.51811453 44.44035127 -44.38509841 43.28946878 -45.1875 40.75 C-45.25097055 37.3305239 -45.13161942 34.87691999 -42.87109375 32.17871094 C-41.04349056 30.55146564 -39.15285614 29.08291517 -37.1875 27.625 C-36.47851562 27.07440918 -35.76953125 26.52381836 -35.0390625 25.95654297 C-32.76963927 24.20122373 -30.4804056 22.47449623 -28.1875 20.75 C-25.91456112 19.01722292 -23.64458897 17.28061855 -21.375 15.54345703 C-19.96246236 14.46608178 -18.54604926 13.39376009 -17.125 12.32763672 C-12.87413497 9.12392081 -8.87657317 5.75431713 -4.9675293 2.13916016 C-3.1875 0.75 -3.1875 0.75 0 0 Z " fill="#0E56AF" transform="translate(115.1875,152.25)"/>
<path d="M0 0 C3.5 0.4375 3.5 0.4375 6 1.375 C8.07366689 4.22629198 7.47290995 6.38533317 7.02828979 9.75692749 C6.01952817 14.87544144 4.17523482 19.69567913 2.37890625 24.58203125 C1.75072243 26.32778694 1.75072243 26.32778694 1.10984802 28.10881042 C-0.23002742 31.82595675 -1.58339861 35.53801544 -2.9375 39.25 C-3.81276737 41.66958984 -4.68712378 44.08950942 -5.56054688 46.50976562 C-7.31169514 51.35924675 -9.06800647 56.20681329 -10.82763672 61.05322266 C-13.9911346 69.77797146 -17.10819719 78.5190857 -20.21788025 87.26313782 C-21.30738156 90.32290559 -22.40321579 93.38033742 -23.5 96.4375 C-23.78938446 97.26013336 -24.07876892 98.08276672 -24.37692261 98.93032837 C-26.27383276 104.21133276 -26.27383276 104.21133276 -28.5 106.4375 C-30.55859375 106.73828125 -30.55859375 106.73828125 -32.9375 106.75 C-34.11119141 106.77513672 -34.11119141 106.77513672 -35.30859375 106.80078125 C-37.5 106.4375 -37.5 106.4375 -39.34765625 105.41796875 C-41.2319569 102.17952662 -40.24047322 98.95009237 -39.5 95.4375 C-38.22211709 91.10871755 -36.7144342 86.87034759 -35.1953125 82.62109375 C-34.75991653 81.38287369 -34.32452057 80.14465363 -33.87593079 78.86891174 C-32.70868755 75.55003997 -31.53163421 72.23473403 -30.35206223 68.92022705 C-29.13894427 65.50772456 -27.93324598 62.09260242 -26.72680664 58.67773438 C-25.29733332 54.63319128 -23.86680113 50.58903438 -22.43171692 46.54647827 C-19.85391859 39.28337728 -17.30358116 32.01194636 -14.80078125 24.72265625 C-14.0662635 22.59699112 -13.33082539 20.47164756 -12.59490967 18.34646606 C-11.95531249 16.48922337 -11.32637668 14.62831985 -10.69775391 12.76733398 C-10.32183105 11.68911377 -9.9459082 10.61089355 -9.55859375 9.5 C-9.25236084 8.60410156 -8.94612793 7.70820313 -8.63061523 6.78515625 C-6.57852724 2.52411583 -4.72984995 0.59123124 0 0 Z " fill="#0E58B3" transform="translate(175.5,136.5625)"/>
<path d="M0 0 C0.86500122 -0.00845947 1.73000244 -0.01691895 2.62121582 -0.02563477 C3.56727188 -0.01956207 4.51332794 -0.01348938 5.48805237 -0.00723267 C6.48668304 -0.01248962 7.48531372 -0.01774658 8.51420593 -0.02316284 C11.82278481 -0.036391 15.13088442 -0.02761393 18.43946838 -0.01748657 C20.73488457 -0.01950665 23.03030013 -0.02241754 25.32571411 -0.02618408 C30.14014283 -0.03061139 34.95440473 -0.02416375 39.76881409 -0.01016235 C45.94407416 0.00691997 52.11894283 -0.0029033 58.2941885 -0.02087975 C63.0356339 -0.0317147 67.77698635 -0.02827236 72.51843452 -0.02049637 C74.79544686 -0.01849307 77.07246761 -0.02095815 79.34947014 -0.02793503 C82.53130855 -0.0355435 85.71251135 -0.0239528 88.89430237 -0.00723267 C89.8383342 -0.01330536 90.78236603 -0.01937805 91.75500488 -0.02563477 C98.12162684 0.03642672 98.12162684 0.03642672 101.33901978 1.78411865 C103.08982627 3.75732311 103.2955333 4.76347902 103.25587463 7.38095093 C103.27134338 8.40188843 103.27134338 8.40188843 103.28712463 9.44345093 C102.75587463 11.38095093 102.75587463 11.38095093 101.33229065 12.9777832 C97.33970318 15.15222624 93.47831516 14.79826665 89.00196838 14.76913452 C87.51843369 14.77701996 87.51843369 14.77701996 86.00492859 14.7850647 C82.73425016 14.79827322 79.46405805 14.78952338 76.19337463 14.77938843 C73.92180793 14.78140891 71.65024185 14.78432013 69.37867737 14.78808594 C64.61730271 14.79251046 59.85609686 14.78607397 55.09474182 14.77206421 C48.98789025 14.75497243 42.88143422 14.7648129 36.77459717 14.7827816 C32.0837658 14.79361588 27.39302839 14.7901747 22.70219421 14.78239822 C20.45030165 14.78039524 18.19840059 14.78285892 15.94651794 14.78983688 C12.80070865 14.79744531 9.65554223 14.7858552 6.50978088 14.76913452 C5.11011581 14.77824356 5.11011581 14.77824356 3.68217468 14.78753662 C-2.61096952 14.72548644 -2.61096952 14.72548644 -5.82273865 12.9777832 C-7.5862679 10.99657683 -7.75629197 10.00921523 -7.68162537 7.38095093 C-7.6803363 6.70032593 -7.67904724 6.01970093 -7.67771912 5.31845093 C-6.72931811 1.08055094 -4.05511972 0.00610254 0 0 Z " fill="#9BC2E9" transform="translate(177.24412536621094,405.6190490722656)"/>
<path d="M0 0 C0.88190002 -0.00708481 1.76380005 -0.01416962 2.67242432 -0.02146912 C3.64234818 -0.0189917 4.61227203 -0.01651428 5.61158752 -0.01396179 C6.63118561 -0.01907272 7.65078369 -0.02418365 8.70127869 -0.02944946 C12.08493353 -0.04339443 15.46838581 -0.042385 18.85206604 -0.04008484 C21.19614743 -0.04396908 23.5402281 -0.04830318 25.88430786 -0.05307007 C30.80302713 -0.06054285 35.72167464 -0.06023334 40.64039612 -0.05497742 C46.9536455 -0.04918153 53.26660164 -0.06611179 59.57980251 -0.08932209 C64.42242154 -0.10403114 69.26496948 -0.10493498 74.10760689 -0.10181236 C76.43569075 -0.102327 78.76377844 -0.10759132 81.09184074 -0.11762428 C84.34341028 -0.12991643 87.59440271 -0.12324026 90.84596252 -0.11161804 C91.81386215 -0.11926178 92.78176178 -0.12690552 93.7789917 -0.13478088 C95.10607147 -0.12425941 95.10607147 -0.12425941 96.45996094 -0.11352539 C97.22890403 -0.11369313 97.99784712 -0.11386087 98.79009151 -0.1140337 C101.36692367 0.36795984 102.24731317 1.1679991 103.79347229 3.26069641 C104.44873852 9.37651453 104.44873852 9.37651453 102.53766537 11.95521641 C100.3649778 13.58141262 99.20768887 13.63974407 96.51138306 13.64837646 C95.63796768 13.6582811 94.76455231 13.66818573 93.8646698 13.6783905 C92.909263 13.67388885 91.9538562 13.66938721 90.96949768 13.66474915 C89.96111343 13.6716124 88.95272919 13.67847565 87.91378784 13.68554688 C84.57275911 13.70388291 81.23219691 13.69996756 77.89112854 13.69429016 C75.57329149 13.69884875 73.25545579 13.70415335 70.93762207 13.71017456 C66.07612116 13.7191191 61.2147844 13.71666726 56.35328674 13.70674133 C50.11741424 13.69525123 43.88210795 13.71545749 37.64630985 13.74465847 C32.85853463 13.76298811 28.0708959 13.76273442 23.28309441 13.75702095 C20.98374576 13.75686733 18.6843881 13.76294482 16.38507271 13.77531242 C13.17196573 13.79015879 9.95991493 13.77959138 6.74684143 13.7624054 C5.79345886 13.77207336 4.84007629 13.78174133 3.85780334 13.79170227 C-2.53734711 13.71992841 -2.53734711 13.71992841 -5.83642578 11.4559021 C-7.20652771 9.26069641 -7.20652771 9.26069641 -7.08152771 5.63569641 C-5.85185283 0.89266475 -4.67268238 0.01248092 0 0 Z " fill="#98C0E9" transform="translate(176.20652770996094,321.7393035888672)"/>
<path d="M0 0 C0.69351563 0.70125 1.38703125 1.4025 2.1015625 2.125 C4.07893729 4.10656118 6.09690875 6.03295769 8.1484375 7.9375 C9.22409122 8.95819331 10.29961076 9.97902804 11.375 11 C11.93316406 11.50789063 12.49132812 12.01578125 13.06640625 12.5390625 C14.6484375 14.0625 14.6484375 14.0625 17 17 C16.72777147 23.63235386 11.16514256 27.49236953 6.75 31.875 C5.89019531 32.76703125 5.03039062 33.6590625 4.14453125 34.578125 C2.88962891 35.83496094 2.88962891 35.83496094 1.609375 37.1171875 C0.84592773 37.88659668 0.08248047 38.65600586 -0.70410156 39.44873047 C-3 41 -3 41 -5.57983398 40.92651367 C-8.1448162 39.94455992 -9.44157021 39.02543705 -11.33203125 37.05859375 C-11.90244141 36.47529297 -12.47285156 35.89199219 -13.06054688 35.29101562 C-13.63869141 34.67935547 -14.21683594 34.06769531 -14.8125 33.4375 C-15.40998047 32.82197266 -16.00746094 32.20644531 -16.62304688 31.57226562 C-18.0912621 30.05706751 -19.54689553 28.52969562 -21 27 C-19.4895853 23.15530803 -17.20364287 21.51210763 -14 19 C-8.80140058 13.19650452 -3.50525819 7.01051638 0 0 Z " fill="#053E8A" transform="translate(603,485)"/>
<path d="M0 0 C3.42484369 2.28322912 4.97163392 4.19326784 6.8125 7.875 C7.46543024 13.09844192 6.657608 16.46017724 3.8125 20.875 C1.57990173 23.37025689 0.00692334 24.68172059 -3.3359375 25.22265625 C-9.58971618 25.46158799 -12.83930276 23.96933807 -17.5 19.8125 C-19.96437148 15.52266817 -20.09200566 11.70676101 -19.1875 6.875 C-17.53319768 3.67755401 -15.21435008 1.62802339 -12.3125 -0.5 C-7.92422853 -1.79066808 -4.28345394 -1.51180727 0 0 Z " fill="#F5F7FA" transform="translate(345.1875,547.125)"/>
<path d="M0 0 C1.21584495 0.00092179 2.43168989 0.00184359 3.68437862 0.00279331 C4.35901919 0.00193889 5.03365975 0.00108446 5.72874397 0.00020415 C8.00588764 -0.00145256 10.28295882 0.00407379 12.56009579 0.00952244 C14.18583836 0.00980429 15.81158107 0.00964661 17.43732357 0.00907993 C21.86482015 0.0087919 26.29228989 0.01468956 30.71978021 0.02165389 C35.34159444 0.02788646 39.96340922 0.02849115 44.58522701 0.0296793 C53.34356839 0.0327929 62.10189735 0.04100667 70.86023325 0.05102879 C80.82862615 0.06218903 90.79701963 0.06770015 100.76541722 0.07272422 C121.27698043 0.08318927 141.78853244 0.10078926 162.30008602 0.12304783 C161.97008602 2.10304783 161.64008602 4.08304783 161.30008602 6.12304783 C160.97008602 5.13304783 160.64008602 4.14304783 160.30008602 3.12304783 C107.17008602 3.12304783 54.04008602 3.12304783 -0.69991398 3.12304783 C-1.02991398 4.77304783 -1.35991398 6.42304783 -1.69991398 8.12304783 C-2.68991398 7.79304783 -3.67991398 7.46304783 -4.69991398 7.12304783 C-3.66390409 0.16698141 -3.66390409 0.16698141 0 0 Z " fill="#2C4280" transform="translate(258.69991397857666,599.8769521713257)"/>
<path d="M0 0 C3.34192692 0.24453124 4.60543557 0.60543557 7 3 C6.50119165 7.68620421 3.1181296 10.16797522 -0.125 13.25 C-1.31568728 14.40822136 -2.50450256 15.56837041 -3.69140625 16.73046875 C-4.26391113 17.29040527 -4.83641602 17.8503418 -5.42626953 18.42724609 C-8.46219276 21.46128541 -11.22581765 24.72870983 -14 28 C-16.1875 30.5625 -16.1875 30.5625 -18 32 C-21.50287274 31.62520703 -23.09185051 30.21733444 -25.4375 27.6875 C-28.13224844 24.86498332 -30.88175954 22.36230338 -34 20 C-33.25 15.25 -33.25 15.25 -31 13 C-27.63567724 13.32138856 -26.01182596 14.64645863 -23.75 17.0625 C-23.22921875 17.61035156 -22.7084375 18.15820312 -22.171875 18.72265625 C-21.78515625 19.14417969 -21.3984375 19.56570313 -21 20 C-17.9040964 18.63543881 -15.92713685 17.12168778 -13.65234375 14.62890625 C-12.74452148 13.64374023 -12.74452148 13.64374023 -11.81835938 12.63867188 C-11.19767578 11.95353516 -10.57699219 11.26839844 -9.9375 10.5625 C-8.69696929 9.20931015 -7.45609611 7.85643417 -6.21484375 6.50390625 C-5.66948975 5.90392822 -5.12413574 5.3039502 -4.56225586 4.68579102 C-4.04671143 4.12947998 -3.53116699 3.57316895 -3 3 C-2.23731812 2.14329712 -2.23731812 2.14329712 -1.45922852 1.26928711 C-0.7369104 0.64098999 -0.7369104 0.64098999 0 0 Z " fill="#F0F4F9" transform="translate(123,294)"/>
<path d="M0 0 C2.35742188 0.81689453 2.35742188 0.81689453 3.66992188 2.87939453 C4.01023437 3.83845703 4.01023437 3.83845703 4.35742188 4.81689453 C-1.54447407 11.33655902 -7.48593812 17.75479062 -13.77929688 23.90283203 C-15.82077842 25.91194826 -15.82077842 25.91194826 -17.89257812 28.87939453 C-19.64257812 30.81689453 -19.64257812 30.81689453 -21.85351562 31.29345703 C-25.98414222 30.58766369 -28.20363073 28.02131878 -31.01757812 25.12939453 C-31.57574219 24.59894531 -32.13390625 24.06849609 -32.70898438 23.52197266 C-34.29101562 21.93017578 -34.29101562 21.93017578 -36.64257812 18.81689453 C-36.49414062 15.92236328 -36.49414062 15.92236328 -35.64257812 13.81689453 C-33.41210938 13.10205078 -33.41210938 13.10205078 -30.64257812 12.81689453 C-28.40429688 14.25048828 -28.40429688 14.25048828 -26.33007812 16.25439453 C-25.63269531 16.91310547 -24.9353125 17.57181641 -24.21679688 18.25048828 C-23.69730469 18.76740234 -23.1778125 19.28431641 -22.64257812 19.81689453 C-19.72247076 16.93048071 -16.86425049 14.00100015 -14.04882812 11.01220703 C-12.74702073 9.65517144 -11.44493199 8.29840569 -10.14257812 6.94189453 C-9.49160156 6.24064453 -8.840625 5.53939453 -8.16992188 4.81689453 C-7.53183594 4.15947266 -6.89375 3.50205078 -6.23632812 2.82470703 C-5.66591797 2.22287598 -5.09550781 1.62104492 -4.5078125 1.00097656 C-2.64257812 -0.18310547 -2.64257812 -0.18310547 0 0 Z " fill="#F0F3F9" transform="translate(125.642578125,379.18310546875)"/>
<path d="M0 0 C2.76386182 2.4183791 3.79835577 3.96657334 4.5 7.5625 C3.80243877 10.96311101 2.88228706 12.05445623 0 14 C-3.51185313 14.63594926 -6.73965469 14.63017266 -10 13 C-11.63102777 9.73794446 -11.51981506 6.56444611 -11 3 C-8.90448885 -1.1910223 -4.14095683 -0.89151385 0 0 Z " fill="#1258B1" transform="translate(305,201)"/>
<path d="M0 0 C3.4375 0.9375 3.4375 0.9375 5.375 2 C7.12793126 5.19652171 6.95530725 8.38682174 6.4375 11.9375 C5.4375 13.9375 5.4375 13.9375 3.4375 14.9375 C0.67660156 15.39189787 -1.80612052 15.44283624 -4.5625 14.9375 C-7.48031637 12.65795596 -7.54070387 11.11186907 -8 7.4375 C-7.5625 3.9375 -7.5625 3.9375 -6 1.4375 C-3.5625 -0.0625 -3.5625 -0.0625 0 0 Z " fill="#145EBA" transform="translate(301.5625,240.0625)"/>
<path d="M0 0 C0.66 0 1.32 0 2 0 C2 0.66 2 1.32 2 2 C2.53012695 2.20415527 3.06025391 2.40831055 3.60644531 2.61865234 C7.01187557 4.58396491 9.56304917 7.31822309 12.296875 10.1015625 C12.89050842 10.69802582 13.48414185 11.29448914 14.09576416 11.9090271 C15.98526627 13.8096981 17.86768392 15.71721474 19.75 17.625 C21.03209065 18.91712468 22.31463761 20.20879676 23.59765625 21.5 C26.73708432 24.66144479 29.87017801 27.8290461 33 31 C32.34 31.66 31.68 32.32 31 33 C27.00602615 29.05534383 23.01857403 25.10425446 19.03710938 21.14697266 C17.68082557 19.80076671 16.32275497 18.45635851 14.96289062 17.11376953 C13.01223399 15.18728284 11.06802606 13.25449117 9.125 11.3203125 C8.51253418 10.71816925 7.90006836 10.116026 7.26904297 9.49563599 C5.80757815 8.03456499 4.39820649 6.52171827 3 5 C3 4.34 3 3.68 3 3 C2.01 2.67 1.02 2.34 0 2 C0 1.34 0 0.68 0 0 Z " fill="#2B6AC3" transform="translate(684,550)"/>
<path d="M0 0 C16.83 0.33 33.66 0.66 51 1 C51 1.33 51 1.66 51 2 C35.16 2 19.32 2 3 2 C2.67 3.65 2.34 5.3 2 7 C1.01 6.67 0.02 6.34 -1 6 C-0.67 4.02 -0.34 2.04 0 0 Z " fill="#083779" transform="translate(255,601)"/>
<path d="M0 0 C0.495 0.99 0.495 0.99 1 2 C-9.78246919 5.12124108 -20.96126471 3.73912929 -32 3 C-32 2.67 -32 2.34 -32 2 C-31.39003174 1.97494385 -30.78006348 1.9498877 -30.15161133 1.92407227 C-27.37172102 1.8075942 -24.5921266 1.68510368 -21.8125 1.5625 C-20.85279297 1.52318359 -19.89308594 1.48386719 -18.90429688 1.44335938 C-17.97294922 1.40146484 -17.04160156 1.35957031 -16.08203125 1.31640625 C-15.22843018 1.27974854 -14.3748291 1.24309082 -13.49536133 1.20532227 C-8.88216636 0.82574131 -4.68163792 -0.1088753 0 0 Z " fill="#3067B4" transform="translate(520,516)"/>
<path d="M0 0 C6.56045604 1.59041358 10.43607602 7.65411403 14 13 C11 13 11 13 8.30078125 10.6640625 C7.29685338 9.65880492 6.3010225 8.64541032 5.3125 7.625 C4.80138672 7.11710938 4.29027344 6.60921875 3.76367188 6.0859375 C0 2.26699141 0 2.26699141 0 0 Z " fill="#2C68BF" transform="translate(614,557)"/>
<path d="M0 0 C3.6875 0.3125 3.6875 0.3125 6.125 2.3125 C6.8984375 3.3025 6.8984375 3.3025 7.6875 4.3125 C6.6975 5.7975 6.6975 5.7975 5.6875 7.3125 C5.0275 5.9925 4.3675 4.6725 3.6875 3.3125 C-1.63420494 3.01687633 -1.63420494 3.01687633 -6.3125 5.3125 C-3.92091837 0.36989796 -3.92091837 0.36989796 0 0 Z " fill="#1D59B5" transform="translate(175.3125,136.6875)"/>
<path d="M0 0 C0.33 0.66 0.66 1.32 1 2 C-5.15034169 9.48291572 -5.15034169 9.48291572 -9 12 C-9.66 11.67 -10.32 11.34 -11 11 C-7.37 7.37 -3.74 3.74 0 0 Z " fill="#3369B7" transform="translate(523,379)"/>
<path d="M0 0 C0.33 0 0.66 0 1 0 C1.33 3.3 1.66 6.6 2 10 C-0.475 9.01 -0.475 9.01 -3 8 C-2.67 6.68 -2.34 5.36 -2 4 C-1.34 4 -0.68 4 0 4 C0 2.68 0 1.36 0 0 Z " fill="#213F78" transform="translate(425,622)"/>
<path d="M0 0 C0.33 0.99 0.66 1.98 1 3 C-1.31 4.98 -3.62 6.96 -6 9 C-6.33 8.01 -6.66 7.02 -7 6 C-4.69 4.02 -2.38 2.04 0 0 Z " fill="#215EB2" transform="translate(505,398)"/>
<path d="M0 0 C0.66 0.99 1.32 1.98 2 3 C-0.64 4.98 -3.28 6.96 -6 9 C-6.66 8.34 -7.32 7.68 -8 7 C-5.36 4.69 -2.72 2.38 0 0 Z " fill="#1957AC" transform="translate(411,307)"/>
<path d="M0 0 C0.33 0.99 0.66 1.98 1 3 C-1.64 5.31 -4.28 7.62 -7 10 C-7.66 9.67 -8.32 9.34 -9 9 C-6.03 6.03 -3.06 3.06 0 0 Z " fill="#2E66B6" transform="translate(535,367)"/>
<path d="M0 0 C2.6875 -0.3125 2.6875 -0.3125 6 0 C8.875 2.5 8.875 2.5 11 5 C10.01 5 9.02 5 8 5 C7.34 4.34 6.68 3.68 6 3 C4.01178687 2.60235737 2.01055661 2.26224651 0 2 C0 1.34 0 0.68 0 0 Z " fill="#2C61B5" transform="translate(545,358)"/>
<path d="M0 0 C3.3 0.33 6.6 0.66 10 1 C10 1.33 10 1.66 10 2 C7.69 2 5.38 2 3 2 C2.67 3.65 2.34 5.3 2 7 C1.01 6.67 0.02 6.34 -1 6 C-0.67 4.02 -0.34 2.04 0 0 Z " fill="#294D8C" transform="translate(255,601)"/>
<path d="M0 0 C-1.5830577 4.2742558 -4.50568404 6.26531794 -8 9 C-7.53918323 4.85264908 -4.48412936 0 0 0 Z " fill="#2968B5" transform="translate(527,410)"/>
<path d="M0 0 C0.66 0.99 1.32 1.98 2 3 C1.34 3.66 0.68 4.32 0 5 C-0.6425235 7.06874034 -0.6425235 7.06874034 -1 9 C-1.66 9 -2.32 9 -3 9 C-3.36923077 3.46153846 -3.36923077 3.46153846 -1.5 1.125 C-1.005 0.75375 -0.51 0.3825 0 0 Z " fill="#0C56B7" transform="translate(297,241)"/>
<path d="M0 0 C0.66 0 1.32 0 2 0 C2 0.99 2 1.98 2 3 C1.01 3.495 1.01 3.495 0 4 C-0.65772428 7.02934491 -0.65772428 7.02934491 -1 10 C-1.66 9.67 -2.32 9.34 -3 9 C-2.25 2.25 -2.25 2.25 0 0 Z " fill="#2B5DB3" transform="translate(73,184)"/>
<path d="M0 0 C0.99 0.33 1.98 0.66 3 1 C3 2.32 3 3.64 3 5 C2.34 5 1.68 5 1 5 C1 5.99 1 6.98 1 8 C0.34 8 -0.32 8 -1 8 C-1.33 8.99 -1.66 9.98 -2 11 C-1 3.57142857 -1 3.57142857 0 0 Z " fill="#486396" transform="translate(248,632)"/>
<path d="M0 0 C-1.32 0.33 -2.64 0.66 -4 1 C-4 1.99 -4 2.98 -4 4 C-7.3 4 -10.6 4 -14 4 C-11.37350692 2.24900461 -9.38191413 1.30690675 -6.4375 0.3125 C-5.65246094 0.04050781 -4.86742187 -0.23148438 -4.05859375 -0.51171875 C-2 -1 -2 -1 0 0 Z " fill="#4878C0" transform="translate(551,545)"/>
<path d="M0 0 C3.7952131 1.49097658 5.61042731 3.75700849 8 7 C5 7 5 7 2.3125 4.625 C0 2 0 2 0 0 Z " fill="#2660AD" transform="translate(93,318)"/>
<path d="M0 0 C1.10844919 3.32534757 0.84454356 5.62182575 0 9 C-0.99 9 -1.98 9 -3 9 C-2.67 7.02 -2.34 5.04 -2 3 C-1.34 3 -0.68 3 0 3 C0 2.01 0 1.02 0 0 Z " fill="#0E3477" transform="translate(249,637)"/>
<path d="M0 0 C1.98 0 3.96 0 6 0 C6.33 0.66 6.66 1.32 7 2 C4.36 2.66 1.72 3.32 -1 4 C-0.67 2.68 -0.34 1.36 0 0 Z " fill="#1F60B8" transform="translate(437,403)"/>
<path d="M0 0 C0.66 0.66 1.32 1.32 2 2 C1.01 4.97 0.02 7.94 -1 11 C-1.33 11 -1.66 11 -2 11 C-2.25 3.375 -2.25 3.375 0 0 Z " fill="#EFF3F9" transform="translate(2,89)"/>
<path d="M0 0 C0.66 0.99 1.32 1.98 2 3 C0.68 5.31 -0.64 7.62 -2 10 C-3 8 -3 8 -2.44140625 6.0546875 C-2.15136719 5.33539063 -1.86132812 4.61609375 -1.5625 3.875 C-1.27503906 3.15054688 -0.98757812 2.42609375 -0.69140625 1.6796875 C-0.46324219 1.12539062 -0.23507813 0.57109375 0 0 Z " fill="#D0DEF0" transform="translate(179,155)"/>
<path d="M0 0 C2.94956528 1.36944102 5.52468811 2.87830409 8 5 C8 5.66 8 6.32 8 7 C5.05043472 5.63055898 2.47531189 4.12169591 0 2 C0 1.34 0 0.68 0 0 Z " fill="#2055A6" transform="translate(12,577)"/>
<path d="M0 0 C0.99 0.33 1.98 0.66 3 1 C1.68 2.32 0.36 3.64 -1 5 C-1.99 4.67 -2.98 4.34 -4 4 C-2.68 2.68 -1.36 1.36 0 0 Z " fill="#205EAF" transform="translate(577,481)"/>
<path d="M0 0 C-0.66 1.32 -1.32 2.64 -2 4 C-2.66 4 -3.32 4 -4 4 C-5.66965451 4.31802943 -7.33678518 4.64984951 -9 5 C-2.87096774 0 -2.87096774 0 0 0 Z " fill="#D5E0F1" transform="translate(450,312)"/>
</svg>
